<svg width="70" height="70" viewBox="0 0 70 70" fill="none" xmlns="http://www.w3.org/2000/svg">
<g filter="url(#filter0_d_141_2025)">
<circle cx="31" cy="30" r="20" fill="#FF5300"/>
</g>
<g clip-path="url(#clip0_141_2025)">
<path d="M33.2875 24.75C34.02 24.8929 34.6932 25.2512 35.221 25.779C35.7488 26.3067 36.107 26.9799 36.2499 27.7125L33.2875 24.75ZM33.2875 21.75C34.8094 21.9191 36.2286 22.6006 37.3121 23.6828C38.3956 24.7649 39.079 26.1833 39.2499 27.705L33.2875 21.75ZM38.4999 33.69V35.94C38.5008 36.1489 38.458 36.3556 38.3743 36.547C38.2907 36.7384 38.1679 36.9102 38.014 37.0514C37.8601 37.1926 37.6784 37.3001 37.4805 37.367C37.2826 37.4339 37.073 37.4588 36.8649 37.44C34.5571 37.1892 32.3402 36.4006 30.3924 35.1375C28.5803 33.986 27.044 32.4496 25.8924 30.6375C24.6249 28.6809 23.8361 26.4532 23.5899 24.135C23.5712 23.9276 23.5959 23.7186 23.6623 23.5212C23.7288 23.3239 23.8356 23.1425 23.976 22.9887C24.1164 22.8349 24.2873 22.712 24.4778 22.6279C24.6683 22.5438 24.8742 22.5002 25.0825 22.5H27.3325C27.6964 22.4964 28.0493 22.6253 28.3253 22.8626C28.6012 23.1 28.7815 23.4296 28.8324 23.79C28.9274 24.51 29.1035 25.217 29.3575 25.8975C29.4584 26.1659 29.4802 26.4577 29.4204 26.7382C29.3606 27.0186 29.2216 27.2761 29.0199 27.48L28.0675 28.4325C29.1351 30.3102 30.6898 31.8648 32.5675 32.9325L33.5199 31.98C33.7239 31.7784 33.9813 31.6394 34.2618 31.5796C34.5423 31.5198 34.834 31.5416 35.1024 31.6425C35.7829 31.8964 36.4899 32.0725 37.21 32.1675C37.5743 32.2189 37.907 32.4024 38.1448 32.6831C38.3827 32.9638 38.5091 33.3222 38.4999 33.69Z" stroke="white" stroke-width="2" stroke-linecap="round" stroke-linejoin="round"/>
</g>
<defs>
<filter id="filter0_d_141_2025" x="0" y="0" width="70" height="70" filterUnits="userSpaceOnUse" color-interpolation-filters="sRGB">
<feFlood flood-opacity="0" result="BackgroundImageFix"/>
<feColorMatrix in="SourceAlpha" type="matrix" values="0 0 0 0 0 0 0 0 0 0 0 0 0 0 0 0 0 0 127 0" result="hardAlpha"/>
<feOffset dx="4" dy="5"/>
<feGaussianBlur stdDeviation="7.5"/>
<feColorMatrix type="matrix" values="0 0 0 0 1 0 0 0 0 0.326087 0 0 0 0 0 0 0 0 0.4 0"/>
<feBlend mode="normal" in2="BackgroundImageFix" result="effect1_dropShadow_141_2025"/>
<feBlend mode="normal" in="SourceGraphic" in2="effect1_dropShadow_141_2025" result="shape"/>
</filter>
<clipPath id="clip0_141_2025">
<rect width="18" height="18" fill="white" transform="translate(22 21)"/>
</clipPath>
</defs>
</svg>
