<svg width="67" height="53" viewBox="0 0 67 53" fill="none" xmlns="http://www.w3.org/2000/svg">
<path d="M8.77985 19.8227C9.93064 15.5689 12.1821 11.6681 15.3961 8.47001C20.2313 3.6541 26.6595 1.00254 33.4984 1.00254C40.3373 1.00254 46.7654 3.6541 51.6006 8.47001C54.8116 11.6681 57.0661 15.5689 58.2169 19.8227H59.2548C58.0821 15.3004 55.7147 11.1528 52.3125 7.76105C47.286 2.75463 40.607 0 33.4984 0C26.3898 0 19.7108 2.75775 14.6843 7.76105C11.279 11.1528 8.91469 15.3004 7.74194 19.8227H8.77985Z" fill="#D7D7D7"/>
<path d="M58.2169 33.1777C57.0661 37.4315 54.8147 41.3323 51.6006 44.5304C46.7654 49.3463 40.3373 51.9979 33.4984 51.9979C26.6595 51.9979 20.2313 49.3463 15.3961 44.5304C12.1852 41.3323 9.93064 37.4315 8.77985 33.1777H7.74194C8.91469 37.7001 11.2821 41.8476 14.6843 45.2394C19.7108 50.2458 26.3898 53.0004 33.4984 53.0004C40.607 53.0004 47.286 50.2427 52.3125 45.2394C55.7178 41.8476 58.0821 37.7001 59.2548 33.1777H58.2169Z" fill="#D7D7D7"/>
<path d="M55.0789 33.1768C54.0096 36.6247 52.1062 39.7822 49.4723 42.4057C45.2078 46.6532 39.5353 48.9955 33.5023 48.9955C27.4692 48.9955 21.7968 46.6563 17.5323 42.4057C14.8983 39.7822 12.995 36.6216 11.9257 33.1768H9.83105C10.9568 37.1619 13.0953 40.8129 16.115 43.8205C20.7589 48.4459 26.9362 50.9944 33.5054 50.9944C40.0747 50.9944 46.2519 48.4459 50.8959 43.8205C53.9155 40.8129 56.0509 37.1619 57.1798 33.1768H55.0789Z" fill="#D7D7D7"/>
<path d="M11.9219 19.8225C12.9912 16.3745 14.8946 13.217 17.5285 10.5936C21.793 6.34607 27.4655 4.0037 33.4985 4.0037C39.5316 4.0037 45.204 6.34295 49.4685 10.5936C52.1025 13.217 54.0059 16.3777 55.0751 19.8225H57.1698C56.0441 15.8373 53.9055 12.1864 50.8859 9.17878C46.2419 4.55338 40.0646 2.00488 33.4954 2.00488C26.9262 2.00488 20.7489 4.55338 16.1049 9.17878C13.0853 12.1864 10.9499 15.8373 9.82104 19.8225H11.9219Z" fill="#D7D7D7"/>
<path d="M59.7942 33.6763H7.20578C3.23288 33.6763 0 30.4563 0 26.4993C0 22.5422 3.23288 19.3223 7.20578 19.3223H59.7942C63.7671 19.3223 67 22.5422 67 26.4993C67 30.4594 63.7671 33.6763 59.7942 33.6763ZM7.20578 20.3248C3.78476 20.3248 1.00341 23.095 1.00341 26.5024C1.00341 29.9098 3.78476 32.68 7.20578 32.68H59.7942C63.2152 32.68 65.9966 29.9098 65.9966 26.5024C65.9966 23.095 63.2152 20.3248 59.7942 20.3248H7.20578V20.3248Z" fill="#D7D7D7"/>
<path d="M33.4985 7.06738L34.643 10.5716H38.3399L35.3485 12.7359L36.4899 16.2401L33.4985 14.0758L30.507 16.2401L31.6484 12.7359L28.657 10.5716H32.3571L33.4985 7.06738Z" fill="#D7D7D7"/>
<path d="M18.2873 38.6894L18.5319 38.2678L17.9675 37.5182L17.4908 37.6337L17.2808 37.3527L19.344 36.8936L19.5134 37.1184L18.4974 38.9673L18.2873 38.6894ZM18.256 37.4495L18.6824 38.0148L19.1277 37.2402L18.256 37.4495Z" fill="#D7D7D7"/>
<path d="M19.3599 39.6426C19.3599 39.452 19.4539 39.2615 19.6421 39.0773L20.4574 38.2715L20.6988 38.5151L19.871 39.3334C19.7518 39.4489 19.6922 39.5645 19.686 39.68C19.6797 39.7956 19.7299 39.908 19.8396 40.0142C19.9462 40.1204 20.056 40.1704 20.172 40.1641C20.288 40.1579 20.4041 40.0985 20.5232 39.983L21.351 39.1647L21.5925 39.4083L20.7803 40.2141C20.5953 40.3984 20.404 40.4889 20.2128 40.4889C20.0183 40.4889 19.8302 40.3952 19.6452 40.211C19.4508 40.0236 19.3599 39.8362 19.3599 39.6426Z" fill="#D7D7D7"/>
<path d="M21.4072 41.7534L22.4106 40.4635L21.9152 40.0794L22.0908 39.8545L23.3608 40.8383L23.1852 41.0632L22.6866 40.679L21.6832 41.9689L21.4072 41.7534Z" fill="#D7D7D7"/>
<path d="M25.0792 41.8881L25.3771 42.063L24.4082 43.7183L24.1103 43.5434L24.5304 42.825L23.6776 42.3285L23.2574 43.0468L22.9595 42.875L23.9284 41.2197L24.2263 41.3915L23.8186 42.0848L24.6716 42.5814L25.0792 41.8881Z" fill="#D7D7D7"/>
<path d="M25.4084 44.1993L26.1516 42.4316L27.34 42.9282L27.2334 43.1812L26.3617 42.8158L26.1547 43.3061L26.9763 43.6497L26.8697 43.9026L26.0481 43.5591L25.8286 44.0775L26.7003 44.443L26.5937 44.6959L25.4084 44.1993Z" fill="#D7D7D7"/>
<path d="M29.3123 43.5238L29.629 43.6113L29.1211 45.4602L28.8702 45.3915L28.2243 43.8236L27.8668 45.1197L27.5532 45.0354L28.0612 43.1865L28.312 43.2552L28.9549 44.8199L29.3123 43.5238Z" fill="#D7D7D7"/>
<path d="M30.6607 45.7295L30.8833 44.1117L30.2625 44.0274L30.3001 43.7432L31.893 43.9587L31.8554 44.2429L31.2314 44.1585L31.0087 45.7763L30.6607 45.7295Z" fill="#D7D7D7"/>
<path d="M32.5264 45.9108L32.6048 43.9932L32.9528 44.0057L32.8744 45.9233L32.5264 45.9108Z" fill="#D7D7D7"/>
<path d="M34.3138 45.8225C34.1665 45.7507 34.0536 45.6414 33.9689 45.4977C33.8843 45.354 33.8372 45.1823 33.8247 44.9855C33.8121 44.7887 33.8404 44.6139 33.9062 44.4608C33.9721 44.3078 34.0755 44.1891 34.2104 44.1017C34.3483 44.0142 34.5083 43.9642 34.6995 43.9517C34.8281 43.9455 34.9535 43.958 35.0695 43.9923C35.1856 44.0267 35.2859 44.0767 35.3643 44.1423L35.2671 44.4015C35.1762 44.3359 35.0884 44.2922 35.0006 44.2641C34.9128 44.2391 34.8218 44.2266 34.7246 44.2328C34.5396 44.2422 34.3985 44.3109 34.3044 44.439C34.2104 44.5639 34.1696 44.7388 34.1822 44.9636C34.1947 45.1885 34.2574 45.3603 34.364 45.4758C34.4706 45.5914 34.618 45.6445 34.8062 45.632C34.9034 45.6258 34.9943 45.6039 35.0758 45.5695C35.1573 45.5352 35.242 45.479 35.3235 45.4009L35.4521 45.6476C35.38 45.7226 35.289 45.785 35.1762 45.8319C35.0633 45.8787 34.9441 45.9068 34.8124 45.9131C34.6274 45.9256 34.4612 45.8943 34.3138 45.8225Z" fill="#D7D7D7"/>
<path d="M39.3528 45.0644L38.9985 45.1581L38.5971 44.6053C38.5595 44.5522 38.5187 44.5209 38.4685 44.5116C38.4184 44.4991 38.3588 44.5053 38.2898 44.5241L37.9511 44.6146L38.1581 45.386L37.8226 45.4735L37.3271 43.6215L38.1236 43.4091C38.3337 43.3529 38.5062 43.356 38.641 43.4185C38.7758 43.4809 38.8668 43.5996 38.9107 43.7714C38.9452 43.8932 38.9389 44.0087 38.8981 44.1118C38.8542 44.2149 38.779 44.3023 38.6692 44.3679C38.7852 44.3617 38.8856 44.4179 38.9671 44.5334L39.3528 45.0644ZM38.2961 44.2398C38.4246 44.2055 38.5124 44.1586 38.5595 44.0931C38.6065 44.0306 38.6191 43.9494 38.594 43.8557C38.5689 43.762 38.5187 43.6995 38.4466 43.6714C38.3745 43.6402 38.2741 43.6433 38.1456 43.6777L37.7254 43.7901L37.8759 44.3523L38.2961 44.2398Z" fill="#D7D7D7"/>
<path d="M40.2997 44.7299L39.5723 42.9528L40.7638 42.4688L40.8673 42.7217L39.9893 43.0778L40.19 43.5681L41.0147 43.2339L41.1181 43.49L40.2935 43.8242L40.5067 44.3458L41.3847 43.9897L41.4882 44.2427L40.2997 44.7299Z" fill="#D7D7D7"/>
<path d="M42.6767 43.546C42.5137 43.5429 42.3631 43.496 42.2252 43.4055C42.0872 43.3118 41.968 43.1806 41.8708 43.0057C41.7736 42.8339 41.7235 42.6653 41.714 42.4966C41.7078 42.3311 41.7454 42.1781 41.8301 42.0406C41.9147 41.9032 42.0402 41.7877 42.2032 41.694C42.3161 41.6315 42.4321 41.5878 42.5513 41.569C42.6704 41.5472 42.7802 41.5503 42.8837 41.5784L42.9087 41.8532C42.799 41.8345 42.6987 41.8314 42.6077 41.847C42.5168 41.8626 42.429 41.8907 42.3443 41.9407C42.1813 42.0313 42.0872 42.1531 42.0558 42.3092C42.0245 42.4623 42.0653 42.6403 42.175 42.8339C42.2848 43.0307 42.4165 43.1587 42.5638 43.2149C42.7112 43.2712 42.868 43.2555 43.031 43.1618C43.1157 43.115 43.1878 43.0557 43.2474 42.987C43.307 42.9182 43.3571 42.8308 43.3979 42.7277L43.6206 42.8933C43.5892 42.9932 43.5359 43.0869 43.4544 43.1806C43.3728 43.2712 43.2788 43.3492 43.1659 43.4117C43.006 43.5023 42.8429 43.5491 42.6767 43.546Z" fill="#D7D7D7"/>
<path d="M44.5454 42.5218L43.4385 40.9509L43.7238 40.751L44.8307 42.3219L44.5454 42.5218Z" fill="#D7D7D7"/>
<path d="M44.439 40.2327L45.0724 39.6892C45.2292 39.555 45.3859 39.4862 45.5365 39.4894C45.6901 39.4894 45.8218 39.5549 45.9347 39.6861C46.0476 39.8173 46.0915 39.9578 46.0695 40.1109C46.0476 40.2639 45.9566 40.4044 45.803 40.5387L45.433 40.8542L45.9566 41.4601L45.6932 41.6881L44.439 40.2327ZM45.596 40.3607C45.687 40.2826 45.7403 40.2046 45.756 40.1265C45.7716 40.0484 45.7466 39.9735 45.687 39.9047C45.6243 39.8329 45.5553 39.7986 45.4737 39.7986C45.3953 39.8017 45.3076 39.8423 45.2166 39.9204L44.878 40.2108L45.2574 40.6512L45.596 40.3607Z" fill="#D7D7D7"/>
<path d="M47.5274 40.0206L46.1038 38.7307L46.9692 37.7812L47.173 37.9655L46.5365 38.662L46.9316 39.018L47.5305 38.3622L47.7343 38.5464L47.1354 39.2023L47.5524 39.5802L48.189 38.8837L48.3928 39.068L47.5274 40.0206Z" fill="#D7D7D7"/>
<path d="M49.1141 38.1026C49.0075 38.1838 48.8977 38.24 48.7849 38.2712L48.6469 38.0276C48.7598 37.9933 48.857 37.9433 48.9448 37.8808C49.0326 37.8184 49.1078 37.7372 49.1799 37.6404C49.2583 37.5311 49.2991 37.4342 49.3022 37.3499C49.3054 37.2625 49.274 37.1969 49.205 37.1469C49.1454 37.1063 49.0827 37.1001 49.0106 37.1313C48.9385 37.1625 48.8444 37.2344 48.7284 37.3374C48.5465 37.5029 48.3897 37.606 48.258 37.6466C48.1263 37.6872 47.9978 37.6622 47.8661 37.5717C47.7751 37.5061 47.7093 37.4217 47.6717 37.3218C47.634 37.2219 47.6309 37.1094 47.6529 36.9907C47.6779 36.8689 47.7313 36.7503 47.8191 36.6316C47.8975 36.5223 47.9884 36.4286 48.0919 36.3536C48.1953 36.2787 48.2988 36.2318 48.4023 36.21L48.5403 36.4504C48.3302 36.5098 48.164 36.6253 48.0417 36.7909C47.9696 36.8908 47.9319 36.9876 47.9319 37.0751C47.9319 37.1625 47.9664 37.2344 48.0386 37.2843C48.1013 37.328 48.1671 37.3343 48.2361 37.3062C48.3051 37.2781 48.3992 37.2094 48.5183 37.1032C48.6437 36.9939 48.7503 36.9127 48.8476 36.8565C48.9416 36.8002 49.0326 36.769 49.1204 36.7659C49.2082 36.7628 49.296 36.7909 49.3806 36.8502C49.4747 36.9158 49.5374 37.0001 49.5719 37.1001C49.6064 37.2 49.6095 37.3093 49.5813 37.4311C49.5531 37.5529 49.4935 37.6747 49.4026 37.8028C49.3179 37.9214 49.2207 38.0214 49.1141 38.1026Z" fill="#D7D7D7"/>
<path d="M8.29064 28.8709H5.95142L6.00786 28.4774L6.66949 28.2431V24.9857L5.99532 24.8451L6.03609 24.4048C6.33084 24.3579 6.67889 24.3173 7.07712 24.2798C7.47535 24.2424 7.80774 24.2236 8.068 24.2236C8.73276 24.2236 9.23447 24.3173 9.5794 24.5047C9.92119 24.6921 10.0937 25.0044 10.0937 25.4417C10.0937 25.6259 10.0466 25.8071 9.9494 25.9788C9.85533 26.1506 9.72678 26.3036 9.56686 26.4317C9.40694 26.5629 9.23447 26.6597 9.04633 26.7222L9.60763 27.4842C9.76127 27.6903 9.88669 27.8527 9.98703 27.9683C10.0874 28.0838 10.1971 28.1838 10.3194 28.2712C10.4417 28.3587 10.5828 28.4211 10.7459 28.4649L10.8807 28.5023L10.796 28.874C10.611 28.9333 10.4041 28.9615 10.1689 28.9615C9.81771 28.9615 9.51981 28.8678 9.27836 28.6804C9.03692 28.493 8.82684 28.2244 8.64183 27.8808L8.18089 27.0282H7.71994V28.215L8.33453 28.4336L8.29064 28.8709ZM7.7168 24.7233V26.4692H8.36903C8.54776 26.3942 8.692 26.2849 8.79862 26.1475C8.90523 26.0101 8.96168 25.8383 8.96168 25.6322C8.96168 25.4604 8.92403 25.3042 8.84564 25.1637C8.77038 25.0232 8.65751 24.9138 8.51327 24.8326C8.36903 24.7514 8.19656 24.7108 8.00215 24.7108C7.93003 24.7108 7.86732 24.714 7.81401 24.7171C7.75757 24.7202 7.72621 24.7233 7.7168 24.7233Z" fill="#D7D7D7"/>
<path d="M11.8025 24.6669L11.8589 24.2578H15.8914L15.7754 25.6258L15.2956 25.5539L15.0636 24.745H13.549V26.3316H14.4239L14.587 25.8538L15.1232 25.7538L14.9977 27.3248L14.4804 27.4091L14.3581 26.7844H13.5522V28.3086H15.1483L15.6029 27.4715L16.0639 27.5278L15.951 28.8676H11.8432L11.8809 28.4741L12.4955 28.2398V24.8731L11.8025 24.6669Z" fill="#D7D7D7"/>
<path d="M18.4565 28.9577C18.121 28.9577 17.8231 28.9046 17.5566 28.8016C17.2932 28.6985 17.1019 28.5673 16.989 28.408L17.0737 27.2431L17.5942 27.3212L17.7416 28.0145C17.8168 28.1238 17.9266 28.2113 18.0771 28.2831C18.2245 28.355 18.3813 28.3893 18.5443 28.3893C18.6603 28.3893 18.7701 28.3674 18.8767 28.3206C18.9802 28.2738 19.0648 28.2082 19.1276 28.1238C19.1903 28.0364 19.2216 27.9333 19.2216 27.8178C19.2216 27.7053 19.184 27.6023 19.1087 27.5148C19.0335 27.4274 18.9394 27.3493 18.8265 27.2837C18.7136 27.2181 18.5569 27.14 18.3593 27.0432C18.0802 26.9089 17.8513 26.7903 17.6789 26.6809C17.5064 26.5716 17.359 26.428 17.2336 26.2468C17.1082 26.0657 17.0455 25.8439 17.0455 25.5847C17.0455 25.2849 17.127 25.0257 17.2932 24.8133C17.4594 24.6009 17.6726 24.4385 17.936 24.3323C18.1994 24.2261 18.4785 24.1699 18.7764 24.1699C18.9833 24.1699 19.2059 24.2043 19.438 24.2699C19.67 24.3355 19.8456 24.4229 19.9616 24.526C19.9616 24.551 19.9491 24.7258 19.9209 25.0507C19.8926 25.3755 19.8738 25.6003 19.8644 25.719L19.3596 25.6378L19.2404 25.0225C19.1809 24.9257 19.0836 24.8414 18.9457 24.7696C18.8077 24.6977 18.6697 24.6603 18.5286 24.6603C18.3687 24.6603 18.237 24.7071 18.1398 24.7977C18.0426 24.8914 17.9924 25.0225 17.9924 25.1912C17.9924 25.313 18.0332 25.4192 18.1147 25.516C18.1962 25.6097 18.2997 25.694 18.4189 25.7627C18.5412 25.8346 18.7105 25.9189 18.93 26.0188C19.2216 26.1563 19.4599 26.2843 19.6418 26.3967C19.8237 26.5092 19.9773 26.6591 20.109 26.8402C20.2407 27.0245 20.3034 27.2431 20.3034 27.4992C20.3034 27.8146 20.2093 28.0832 20.0181 28.3019C19.8268 28.5205 19.5885 28.6829 19.3031 28.7922C19.0147 28.9046 18.7356 28.9577 18.4565 28.9577Z" fill="#D7D7D7"/>
<path d="M21.2097 24.2607H25.6247L25.5025 25.7161L24.9851 25.6318L24.7938 24.7511H23.8876V28.274L24.6056 28.4395L24.5492 28.8705H22.1755L22.2131 28.4739L22.8559 28.2584V24.748H21.9748L21.7146 25.7255L21.2285 25.6537L21.2097 24.2607Z" fill="#D7D7D7"/>
<path d="M26.5339 28.8705L26.5872 28.477L27.1611 28.1834L28.7007 24.345L29.6226 24.167L31.0744 28.199L31.6075 28.4551L31.5667 28.8736H29.2557L29.309 28.4801L29.9393 28.1865L29.6633 27.4151H28.1582L27.8823 28.1927L28.5784 28.4457L28.5314 28.8673H26.5339V28.8705ZM28.3558 26.8373H29.4752L28.9327 25.2226L28.3558 26.8373Z" fill="#D7D7D7"/>
<path d="M33.2193 24.8947L32.5232 24.6792L32.6016 24.2607H34.9502L34.8938 24.6792L34.2698 24.876V26.9217C34.2698 27.3714 34.3764 27.7056 34.5896 27.9211C34.8028 28.1366 35.0945 28.2459 35.4676 28.2459C35.8094 28.2459 36.0759 28.1428 36.2672 27.9336C36.4585 27.7274 36.5525 27.4089 36.5525 26.981L36.5557 24.8947L35.8909 24.6792L35.9442 24.2607H37.9228L37.8695 24.6792L37.2518 24.876L37.2361 26.8686C37.2299 27.5807 37.0574 28.1085 36.725 28.452C36.3926 28.7956 35.8909 28.9673 35.223 28.9673C34.8624 28.9673 34.5394 28.9236 34.251 28.8362C33.9625 28.7487 33.7179 28.5707 33.5172 28.2959C33.3165 28.021 33.2162 27.6244 33.2162 27.1028V24.8947H33.2193Z" fill="#D7D7D7"/>
<path d="M41.162 28.8709H38.8228L38.8792 28.4774L39.5408 28.2431V24.9857L38.8667 24.8451L38.9074 24.4048C39.2022 24.3579 39.5502 24.3173 39.9484 24.2798C40.3467 24.2424 40.6791 24.2236 40.9393 24.2236C41.6041 24.2236 42.1058 24.3173 42.4507 24.5047C42.7925 24.6921 42.965 25.0044 42.965 25.4417C42.965 25.6259 42.9179 25.8071 42.8207 25.9788C42.7267 26.1506 42.5981 26.3036 42.4382 26.4317C42.2783 26.5629 42.1058 26.6597 41.9177 26.7222L42.4789 27.4842C42.6326 27.6903 42.758 27.8527 42.8584 27.9683C42.9587 28.0838 43.0685 28.1838 43.1907 28.2712C43.313 28.3587 43.4541 28.4211 43.6172 28.4649L43.752 28.5023L43.6674 28.874C43.4824 28.9333 43.2754 28.9615 43.0402 28.9615C42.689 28.9615 42.3911 28.8678 42.1497 28.6804C41.9083 28.493 41.6982 28.2244 41.5132 27.8808L41.0522 27.0282H40.5913V28.215L41.2059 28.4336L41.162 28.8709ZM40.5881 24.7233V26.4692H41.2403C41.4191 26.3942 41.5633 26.2849 41.6699 26.1475C41.7766 26.0101 41.833 25.8383 41.833 25.6322C41.833 25.4604 41.7954 25.3042 41.717 25.1637C41.6417 25.0232 41.5288 24.9138 41.3846 24.8326C41.2404 24.7514 41.0679 24.7108 40.8735 24.7108C40.8014 24.7108 40.7387 24.714 40.6853 24.7171C40.6289 24.7202 40.5975 24.7233 40.5881 24.7233Z" fill="#D7D7D7"/>
<path d="M44.6707 28.8705L44.724 28.477L45.2978 28.1834L46.8374 24.345L47.7593 24.167L49.2111 28.199L49.7442 28.4551L49.7034 28.8736H47.3956L47.4489 28.4801L48.076 28.1865L47.8001 27.4151H46.295L46.019 28.1927L46.7151 28.4457L46.6681 28.8673H44.6707V28.8705ZM46.4956 26.8373H47.6151L47.0726 25.2226L46.4956 26.8373Z" fill="#D7D7D7"/>
<path d="M50.7007 24.6888L50.7477 24.2578H52.2183L54.4008 27.3778V24.8918L53.7078 24.6763L53.7737 24.2578H55.7303L55.6551 24.6763L55.0342 24.8731V28.8364L54.2221 28.9769L52.0333 25.9381V28.2648L52.7075 28.4428L52.6636 28.8645H50.7007L50.7383 28.471L51.3623 28.2367V24.9355L50.7007 24.6888Z" fill="#D7D7D7"/>
<path d="M56.6333 24.2607H61.0483L60.926 25.7161L60.4086 25.6318L60.2174 24.7511H59.3112V28.274L60.0292 28.4395L59.9728 28.8705H57.5991L57.6367 28.4739L58.2795 28.2584V24.748H57.3984L57.1381 25.7255L56.6521 25.6537L56.6333 24.2607Z" fill="#D7D7D7"/>
</svg>
