<svg width="51" height="53" viewBox="0 0 51 53" fill="none" xmlns="http://www.w3.org/2000/svg">
<path d="M8.69908 21.4404C8.34154 21.2805 7.92015 21.2335 7.43812 21.2993C6.95608 21.3652 6.53472 21.5283 6.17718 21.7886C5.81964 22.0458 5.5419 22.3813 5.34717 22.7953C5.15244 23.2093 5.05349 23.6767 5.05029 24.1973C5.05029 24.721 5.14607 25.1633 5.33761 25.5271C5.52914 25.8909 5.80686 26.1543 6.1644 26.3112C6.52194 26.4711 6.94652 26.5182 7.42855 26.4523C7.91378 26.3864 8.33198 26.2233 8.69271 25.963C9.05024 25.7058 9.32476 25.3671 9.5163 24.95C9.70784 24.5329 9.80362 24.0624 9.80362 23.5418C9.80362 23.0212 9.71103 22.5789 9.5195 22.2183C9.33115 21.8607 9.05661 21.6004 8.69908 21.4404ZM8.26813 24.9249C8.06701 25.2229 7.78609 25.3953 7.43175 25.4424C7.0774 25.4926 6.79966 25.3954 6.60174 25.157C6.40382 24.9186 6.30486 24.5391 6.30486 24.0216C6.30486 23.5073 6.40702 23.1058 6.60813 22.8173C6.80925 22.5256 7.08697 22.3563 7.44131 22.3061C7.79566 22.2559 8.07658 22.3531 8.27769 22.5883C8.47881 22.8267 8.57777 23.1999 8.57777 23.708C8.57138 24.2255 8.46924 24.6301 8.26813 24.9249Z" fill="#D7D7D7"/>
<path d="M14.1771 23.5451C14.0718 23.4573 13.9504 23.4071 13.8196 23.3977C14.1292 23.2503 14.3718 23.0433 14.5442 22.7704C14.7166 22.5007 14.7996 22.1965 14.8028 21.8577C14.8028 21.3716 14.6591 21.0203 14.3718 20.7977C14.0845 20.5781 13.6536 20.506 13.0821 20.5844L10.8795 20.8886L10.8699 25.9161L12.1021 25.7468L12.1053 23.7897L12.5586 23.727C12.8204 23.6894 12.9864 23.7615 13.0566 23.9403L13.6663 25.5272L14.9911 25.3453L14.4357 23.9246C14.3686 23.7615 14.2824 23.636 14.1771 23.5451ZM13.4524 22.485C13.3311 22.5885 13.1396 22.6606 12.8746 22.6951L12.0893 22.8049L12.0925 21.726L12.8778 21.6162C13.1492 21.5786 13.3439 21.5943 13.4588 21.6633C13.5769 21.7323 13.6344 21.864 13.6344 22.0553C13.6344 22.2372 13.5737 22.3815 13.4524 22.485Z" fill="#D7D7D7"/>
<path d="M18.1771 22.9647L19.0007 22.8518L18.9975 23.7833C18.79 23.8586 18.5793 23.9119 18.3718 23.9401C17.9249 24.0029 17.5929 23.9182 17.379 23.6892C17.1652 23.4603 17.0566 23.0776 17.0566 22.5413C17.0566 22.0238 17.162 21.6255 17.3695 21.3433C17.577 21.0641 17.8898 20.8948 18.3112 20.8352C18.541 20.8038 18.7581 20.807 18.9592 20.8477C19.1603 20.8885 19.371 20.97 19.5881 21.0892L19.984 20.095C19.7924 19.957 19.5466 19.8629 19.2433 19.8096C18.9401 19.7563 18.6176 19.7531 18.2761 19.8033C17.7781 19.8723 17.3439 20.0354 16.9704 20.2989C16.5969 20.5592 16.3096 20.8979 16.1021 21.315C15.8978 21.7322 15.7957 22.1995 15.7925 22.717C15.7925 23.2501 15.8914 23.6955 16.0958 24.0562C16.3001 24.4169 16.5906 24.674 16.9704 24.8277C17.3503 24.9814 17.7972 25.0253 18.3112 24.9532C18.64 24.9092 18.9592 24.8308 19.2721 24.7211C19.5849 24.6113 19.869 24.4796 20.1212 24.3228L20.1244 21.8012L18.1739 22.0709L18.1771 22.9647Z" fill="#D7D7D7"/>
<path d="M22.8984 19.2288L20.6733 24.5606L21.9247 24.3881L22.3461 23.2935L24.4498 23.0018L24.868 23.9803L26.1002 23.811L23.8848 19.0908L22.8984 19.2288ZM22.7515 22.2428L23.3995 20.5649L24.0412 22.0641L22.7515 22.2428Z" fill="#D7D7D7"/>
<path d="M27.872 20.7152L30.0172 23.2713L30.943 23.1428L30.9526 18.1152L29.7746 18.2783L29.7682 21.1167L27.623 18.5763L26.7132 18.7017L26.7036 23.7292L27.8688 23.5662L27.872 20.7152Z" fill="#D7D7D7"/>
<path d="M33.3947 17.7803L32.1434 17.9528L32.1338 22.9803L33.3852 22.8078L33.3947 17.7803Z" fill="#D7D7D7"/>
<path d="M38.4799 21.6158L38.1032 20.7283C37.7169 21.0764 37.3179 21.2803 36.9029 21.3398C36.5198 21.3932 36.2293 21.3022 36.025 21.0732C35.8207 20.8412 35.7185 20.4742 35.7217 19.9661C35.7217 19.4612 35.8239 19.0691 36.0314 18.7837C36.2357 18.4983 36.5294 18.329 36.9092 18.2788C37.321 18.2223 37.7201 18.3164 38.1063 18.5579L38.4894 17.5668C38.3138 17.4226 38.0776 17.3191 37.7871 17.2595C37.4966 17.203 37.1966 17.1936 36.8837 17.2375C36.3921 17.3065 35.9611 17.4727 35.594 17.7362C35.2269 17.9996 34.946 18.3415 34.7481 18.7555C34.5502 19.1726 34.4512 19.6337 34.448 20.1418C34.448 20.6561 34.547 21.0921 34.7417 21.4559C34.9396 21.8197 35.2205 22.0831 35.5845 22.2462C35.9484 22.4093 36.3793 22.4564 36.8709 22.3905C37.1806 22.3466 37.4839 22.2556 37.7744 22.1176C38.068 21.9765 38.3011 21.8103 38.4799 21.6158Z" fill="#D7D7D7"/>
<path d="M14.3878 27.7913C14.0909 27.5561 13.6727 27.4777 13.13 27.553L10.8731 27.8635L10.8635 32.891L12.1149 32.7185L12.1181 30.7552L13.1237 30.6172C13.6568 30.545 14.075 30.3474 14.375 30.0275C14.6783 29.7076 14.8283 29.3156 14.8283 28.8483C14.8347 28.3778 14.6847 28.0266 14.3878 27.7913ZM12.9609 29.6512L12.1213 29.7672L12.1245 28.6946L12.9641 28.5786C13.2067 28.5441 13.3854 28.566 13.5004 28.6444C13.6121 28.7197 13.6695 28.8483 13.6695 29.027C13.6663 29.3752 13.4333 29.5853 12.9609 29.6512Z" fill="#D7D7D7"/>
<path d="M19.0709 29.8456C18.9655 29.7578 18.8442 29.7076 18.7134 29.6982C19.023 29.5507 19.2656 29.3438 19.438 29.0709C19.6104 28.8012 19.6966 28.497 19.6966 28.1551C19.6966 27.6721 19.5529 27.3177 19.2656 27.095C18.9783 26.8723 18.5474 26.8033 17.9759 26.8817L15.7733 27.186L15.7637 32.2135L16.9959 32.0441L16.9991 30.0871L17.4524 30.0243C17.7142 29.9867 17.8802 30.0588 17.9504 30.2376L18.5601 31.8277L19.8849 31.6458L19.3295 30.2251C19.2624 30.0588 19.1762 29.9334 19.0709 29.8456ZM18.3462 28.7824C18.2249 28.8859 18.0334 28.9548 17.7652 28.9925L16.9799 29.1023L16.9831 28.0234L17.7684 27.9136C18.0398 27.876 18.2345 27.8916 18.3494 27.9606C18.4676 28.0296 18.525 28.1614 18.525 28.3527C18.5282 28.5377 18.4676 28.6789 18.3462 28.7824Z" fill="#D7D7D7"/>
<path d="M24.338 26.2549C23.9805 26.095 23.5623 26.0479 23.0771 26.1138C22.5918 26.1796 22.1737 26.3427 21.8129 26.603C21.4554 26.8602 21.1777 27.1958 20.9829 27.6098C20.785 28.0238 20.6892 28.4911 20.686 29.0117C20.686 29.5355 20.7818 29.9777 20.9733 30.3415C21.1649 30.7053 21.4426 30.9688 21.8002 31.1256C22.1577 31.2856 22.5823 31.3326 23.0643 31.2667C23.5495 31.2009 23.9677 31.0378 24.3253 30.7775C24.6828 30.5203 24.9573 30.1816 25.1489 29.7645C25.3404 29.3473 25.4362 28.8769 25.4394 28.3562C25.4394 27.8356 25.3468 27.3934 25.1552 27.0327C24.9701 26.6752 24.6956 26.4149 24.338 26.2549ZM23.9071 29.7425C23.7028 30.0404 23.425 30.2129 23.0707 30.26C22.7163 30.3102 22.4386 30.2129 22.2407 29.9746C22.0396 29.7362 21.9438 29.3567 21.9438 28.8392C21.9438 28.3249 22.046 27.9234 22.2471 27.6349C22.4482 27.3432 22.7259 27.1738 23.0803 27.1237C23.4346 27.0735 23.7123 27.1707 23.9167 27.4059C24.1178 27.6443 24.2167 28.0175 24.2167 28.5256C24.2103 29.04 24.1082 29.4445 23.9071 29.7425Z" fill="#D7D7D7"/>
<path d="M29.8033 25.5488C29.4234 25.4014 28.9733 25.3638 28.4497 25.4359L26.512 25.7025L26.5024 30.73L28.4402 30.4635C28.9669 30.3913 29.4202 30.2282 29.8033 29.9742C30.1832 29.7201 30.4737 29.3908 30.6748 28.9862C30.8759 28.5785 30.9748 28.1143 30.978 27.5937C30.978 27.0762 30.8791 26.6434 30.678 26.2953C30.4737 25.944 30.1832 25.6963 29.8033 25.5488ZM29.3915 28.911C29.1616 29.1838 28.8168 29.3532 28.354 29.4159L27.7538 29.4975L27.7602 26.5901L28.3604 26.5086C29.2797 26.3831 29.7362 26.8002 29.7362 27.7662C29.7362 28.2555 29.6213 28.635 29.3915 28.911Z" fill="#D7D7D7"/>
<path d="M34.994 27.4904C34.994 27.848 34.9174 28.1365 34.7642 28.3498C34.6141 28.5662 34.3971 28.6947 34.1193 28.7324C33.8352 28.7732 33.6181 28.7042 33.4649 28.5348C33.3117 28.3623 33.2383 28.0957 33.2383 27.7319L33.2446 24.7743L32.0252 24.9437L32.0188 27.8511C32.0188 28.5662 32.1944 29.0837 32.5487 29.4067C32.9031 29.7266 33.4266 29.8395 34.1193 29.7423C34.7993 29.6482 35.3196 29.3879 35.6804 28.9645C36.0443 28.5411 36.2262 27.9765 36.2262 27.2677L36.2326 24.3604L35.0004 24.5297L34.994 27.4904Z" fill="#D7D7D7"/>
<path d="M39.7122 24.8618C40.124 24.8054 40.5231 24.8963 40.9094 25.1409L41.2924 24.1499C41.1169 24.0056 40.8806 23.9021 40.5901 23.8425C40.2996 23.7829 39.9995 23.7766 39.6867 23.8205C39.1951 23.8895 38.7641 24.0558 38.397 24.3192C38.0299 24.5858 37.749 24.9245 37.5511 25.3385C37.3531 25.7557 37.2542 26.2167 37.251 26.7248C37.251 27.2391 37.35 27.6751 37.5447 28.0389C37.7426 28.4027 38.0235 28.6661 38.3874 28.8292C38.7545 28.9923 39.1823 29.0425 39.6739 28.9735C39.9836 28.9296 40.2869 28.8387 40.5774 28.7007C40.8679 28.5627 41.1041 28.3964 41.2796 28.202L40.903 27.3144C40.5167 27.6625 40.1177 27.8664 39.7027 27.926C39.3196 27.9793 39.0291 27.8883 38.8248 27.6594C38.6205 27.4273 38.5183 27.0604 38.5215 26.5523C38.5215 26.0473 38.6237 25.6553 38.8312 25.3699C39.0387 25.0845 39.3292 24.9151 39.7122 24.8618Z" fill="#D7D7D7"/>
<path d="M41.8638 23.585V24.6577L43.2748 24.4632L43.2652 28.415L44.5293 28.2425L44.5389 24.2876L45.9499 24.0931L45.9531 23.0205L41.8638 23.585Z" fill="#D7D7D7"/>
<path d="M25.8895 47.0448C26.6078 45.5111 27.9868 44.3318 29.5447 43.6168C31.1025 42.9017 32.8327 42.6194 34.5502 42.541C34.4384 44.5922 34.3075 46.7217 33.2956 48.5188C32.4145 50.0807 29.3244 52.7246 27.3292 52.5835C27.2686 52.5804 27.2079 52.571 27.1504 52.5615C27.9325 50.7362 29.1073 49.0771 30.5853 47.7253C30.7928 47.5372 30.8056 47.2173 30.6109 47.0134C30.4193 46.8095 30.0937 46.797 29.8862 46.9883C28.3188 48.4216 27.0675 50.1779 26.2311 52.1131C25.0627 51.0028 25.3308 48.2366 25.8895 47.0448Z" fill="#D7D7D7"/>
<path d="M22.4259 45.1661C23.6709 46.5304 25.2894 50.2752 24.5456 52.0127C24.4594 52.2134 24.3445 52.3796 24.2104 52.5145C22.3812 50.8805 20.9766 48.7603 20.2136 46.4551C20.1243 46.1917 19.837 46.0443 19.5656 46.1321C19.2975 46.2168 19.1474 46.5022 19.2368 46.7687C20.0125 49.1053 21.4012 51.2662 23.2112 52.9755C21.7396 53.1763 19.6071 52.1005 18.7356 51.2694C17.4683 50.0619 16.7468 48.3902 16.5297 46.7311C16.3127 45.072 16.5648 43.4129 17.015 41.8447C18.9686 42.6947 20.9957 43.5979 22.4259 45.1661Z" fill="#D7D7D7"/>
<path d="M39.677 45.6773C39.3801 45.6773 39.0896 45.5393 38.9044 45.2853C38.6011 44.865 38.7033 44.2848 39.1311 43.99C42.151 41.8886 44.6601 39.0848 46.3839 35.8763C48.1652 32.5644 49.107 28.8227 49.107 25.0498C49.107 18.8555 46.6521 13.0314 42.1925 8.64997C37.7329 4.26853 31.8048 1.85669 25.5 1.85669C19.1952 1.85669 13.2672 4.26853 8.80753 8.64997C4.34791 13.0314 1.89302 18.8555 1.89302 25.0498C1.89302 28.8227 2.83476 32.5644 4.61606 35.8763C6.34308 39.0816 8.84902 41.8886 11.8689 43.99C12.2967 44.2879 12.3957 44.8681 12.0956 45.2853C11.7923 45.7055 11.2017 45.8028 10.7772 45.508C7.51784 43.2404 4.8076 40.2107 2.9433 36.7482C1.01835 33.1697 0 29.127 0 25.0529C0 18.36 2.6528 12.0686 7.46996 7.33899C12.2871 2.60629 18.6908 0 25.5 0C32.3123 0 38.7161 2.60629 43.5301 7.33899C48.3472 12.0717 51 18.3631 51 25.0529C51 29.127 49.9817 33.1697 48.0567 36.7482C46.1924 40.2107 43.4854 43.2404 40.2228 45.508C40.06 45.6209 39.8685 45.6773 39.677 45.6773Z" fill="#D7D7D7"/>
<path d="M38.186 12.1658C38.4191 12.1344 38.6074 12.3069 38.6074 12.5547C38.6074 12.8025 38.4191 13.0283 38.186 13.0596L11.2878 16.773C11.0548 16.8044 10.8665 16.6319 10.8665 16.3841C10.8665 16.1363 11.0548 15.9105 11.2878 15.8792L38.186 12.1658Z" fill="#D7D7D7"/>
<path d="M38.186 32.6521C38.4191 32.6208 38.6074 32.7933 38.6074 33.041C38.6074 33.2888 38.4191 33.5146 38.186 33.546L11.2878 37.2594C11.0548 37.2907 10.8665 37.1182 10.8665 36.8705C10.8665 36.6227 11.0548 36.3969 11.2878 36.3655L38.186 32.6521Z" fill="#D7D7D7"/>
</svg>
