<svg width="67" height="53" viewBox="0 0 67 53" fill="none" xmlns="http://www.w3.org/2000/svg">
<path d="M32.789 48.7439C32.7853 48.7439 32.7816 48.7439 32.7779 48.7439C32.2929 48.7288 31.8004 48.6949 31.3191 48.646C31.1525 48.6309 31.034 48.4803 31.0488 48.3108C31.0637 48.1413 31.2117 48.0208 31.3784 48.0358C31.8486 48.0848 32.3225 48.1149 32.7964 48.13C32.963 48.1338 33.0926 48.2769 33.0852 48.4464C33.0815 48.6158 32.9482 48.7439 32.789 48.7439ZM34.2293 48.7439C34.0701 48.7439 33.9368 48.6121 33.9294 48.4501C33.9257 48.2806 34.0552 48.1413 34.2182 48.1338C34.6921 48.1187 35.166 48.0848 35.6362 48.0396C35.8028 48.0208 35.9472 48.1451 35.9657 48.3145C35.9805 48.4803 35.8621 48.6309 35.6954 48.6497C35.2141 48.6987 34.7217 48.7326 34.2367 48.7477C34.2367 48.7439 34.233 48.7439 34.2293 48.7439ZM29.9196 48.4577C29.9048 48.4577 29.8863 48.4577 29.8715 48.4539C29.3938 48.371 28.9125 48.2731 28.4386 48.1601C28.2757 48.1225 28.1794 47.9567 28.2164 47.7948C28.2535 47.6291 28.4164 47.5274 28.5756 47.5688C29.0347 47.678 29.5049 47.776 29.9677 47.855C30.1306 47.8814 30.2417 48.0396 30.2158 48.2053C30.1899 48.3522 30.064 48.4577 29.9196 48.4577ZM37.095 48.4539C36.9506 48.4539 36.8247 48.3484 36.7988 48.1978C36.7729 48.0321 36.8802 47.8739 37.0431 47.8475C37.5097 47.7684 37.9762 47.6705 38.4353 47.5613C38.5982 47.5236 38.7574 47.6253 38.7981 47.7873C38.8351 47.9492 38.7352 48.1149 38.576 48.1564C38.1021 48.2693 37.6207 48.371 37.1431 48.4501C37.1283 48.4501 37.1135 48.4539 37.095 48.4539ZM27.1168 47.7835C27.0872 47.7835 27.0576 47.7797 27.0279 47.7684C26.5651 47.6215 26.0986 47.4596 25.6432 47.2826C25.4877 47.2223 25.41 47.0453 25.4729 46.8871C25.5322 46.7289 25.7062 46.6498 25.8617 46.7101C26.3023 46.8833 26.7577 47.0415 27.2057 47.1846C27.3649 47.2336 27.4537 47.4069 27.4019 47.565C27.3612 47.6969 27.2427 47.7835 27.1168 47.7835ZM39.9015 47.776C39.7719 47.776 39.6534 47.6931 39.6164 47.5613C39.5682 47.3993 39.6571 47.2298 39.8126 47.1809C40.2643 47.0377 40.716 46.8796 41.1566 46.7063C41.3121 46.6461 41.4861 46.7251 41.5454 46.8796C41.6046 47.0378 41.5268 47.2148 41.375 47.275C40.9233 47.452 40.4568 47.6178 39.994 47.7647C39.9607 47.7684 39.9311 47.776 39.9015 47.776ZM24.4214 46.7289C24.3807 46.7289 24.3362 46.7214 24.2955 46.6988C23.8549 46.4916 23.418 46.2656 22.9885 46.0284C22.8441 45.9455 22.7886 45.761 22.8701 45.6141C22.9515 45.4672 23.1329 45.4107 23.2773 45.4935C23.692 45.7233 24.1215 45.9455 24.5473 46.1451C24.6991 46.2167 24.762 46.3975 24.6917 46.5519C24.6436 46.6611 24.5362 46.7289 24.4214 46.7289ZM42.5894 46.7214C42.4747 46.7214 42.3673 46.6573 42.3192 46.5444C42.2488 46.3899 42.3155 46.2092 42.4636 46.1376C42.8894 45.9342 43.3151 45.7158 43.7298 45.486C43.8742 45.4032 44.0556 45.4596 44.1371 45.6065C44.2185 45.7534 44.163 45.938 44.0186 46.0208C43.5928 46.2581 43.1559 46.4841 42.7153 46.6912C42.6746 46.7101 42.6302 46.7214 42.5894 46.7214ZM45.1108 45.309C45.0109 45.309 44.9146 45.26 44.8591 45.1696C44.7702 45.0265 44.8109 44.8382 44.9516 44.7478C45.3478 44.4879 45.744 44.213 46.1216 43.9268C46.2549 43.8251 46.4437 43.8552 46.54 43.9908C46.64 44.1264 46.6103 44.3184 46.477 44.4164C46.0883 44.7101 45.681 44.9926 45.2737 45.26C45.2219 45.2939 45.1664 45.309 45.1108 45.309ZM47.4286 43.5689C47.3434 43.5689 47.2583 43.5313 47.199 43.4597C47.0917 43.3317 47.1065 43.1396 47.2361 43.0304C47.5952 42.7215 47.9506 42.3939 48.2913 42.0586C48.4097 41.9419 48.5986 41.9457 48.7171 42.0662C48.8318 42.1867 48.8281 42.3788 48.7096 42.4993C48.3616 42.842 47.9951 43.1772 47.6248 43.4974C47.5656 43.5463 47.4989 43.5689 47.4286 43.5689ZM11.9626 25.3662C11.9552 25.3662 11.9478 25.3662 11.9441 25.3662C11.7775 25.3549 11.6553 25.2118 11.6627 25.0423C11.696 24.5489 11.7441 24.0517 11.8071 23.5621C11.8293 23.3964 11.9811 23.2796 12.144 23.2985C12.3069 23.3211 12.4254 23.4755 12.4032 23.6412C12.3402 24.1158 12.2958 24.5979 12.2625 25.08C12.2514 25.2419 12.1181 25.3662 11.9626 25.3662ZM55.0261 25.2871C54.8706 25.2871 54.7373 25.1628 54.7262 25.0046C54.6928 24.5263 54.6447 24.0405 54.5818 23.5659C54.5596 23.4002 54.6743 23.2458 54.8372 23.2232C55.0039 23.2006 55.152 23.3173 55.1742 23.483C55.2408 23.9727 55.2889 24.4698 55.3223 24.9632C55.3334 25.1327 55.2075 25.2758 55.0446 25.2871C55.0372 25.2871 55.0335 25.2871 55.0261 25.2871ZM12.3365 22.4586C12.318 22.4586 12.2958 22.4548 12.2773 22.4511C12.1144 22.4172 12.0107 22.259 12.044 22.0933C12.1403 21.6074 12.2514 21.1215 12.381 20.647C12.4254 20.485 12.5883 20.3871 12.7475 20.4323C12.9067 20.4775 13.003 20.6432 12.9585 20.8052C12.8364 21.2684 12.7253 21.7392 12.6327 22.2138C12.6031 22.3569 12.4772 22.4586 12.3365 22.4586ZM54.6373 22.3833C54.4966 22.3833 54.3744 22.2853 54.3448 22.1384C54.2485 21.6677 54.1375 21.1931 54.0116 20.7336C53.9672 20.5716 54.0597 20.4022 54.2226 20.357C54.3818 20.3118 54.5485 20.4059 54.5929 20.5716C54.7225 21.0462 54.8372 21.5321 54.9335 22.0179C54.9668 22.1836 54.8632 22.3456 54.7003 22.3795C54.678 22.3795 54.6595 22.3833 54.6373 22.3833ZM13.0955 19.6301C13.0622 19.6301 13.0289 19.6263 12.9993 19.615C12.8438 19.5585 12.7586 19.3853 12.8141 19.2271C12.9734 18.76 13.1511 18.293 13.3399 17.8373C13.4028 17.6829 13.5806 17.6113 13.7324 17.6753C13.8842 17.7394 13.9545 17.9201 13.8916 18.0746C13.7064 18.519 13.5361 18.971 13.3806 19.4267C13.3362 19.551 13.2177 19.6301 13.0955 19.6301ZM53.8709 19.5547C53.7487 19.5547 53.6302 19.4756 53.5895 19.3514C53.434 18.8994 53.26 18.4474 53.0749 18.0068C53.0082 17.8523 53.0823 17.6716 53.2341 17.6075C53.3859 17.5397 53.5636 17.6151 53.6265 17.7695C53.8154 18.2215 53.9931 18.6885 54.156 19.1555C54.2115 19.3137 54.1301 19.4869 53.9709 19.5434C53.9375 19.551 53.9042 19.5547 53.8709 19.5547ZM14.2174 16.9258C14.173 16.9258 14.1248 16.9145 14.0841 16.8919C13.936 16.8166 13.8768 16.632 13.9508 16.4814C14.1693 16.0407 14.4062 15.6001 14.6543 15.1745C14.7394 15.0276 14.9246 14.9824 15.0652 15.069C15.2096 15.1556 15.2541 15.3402 15.1689 15.4871C14.9283 15.9014 14.6987 16.327 14.484 16.7563C14.4321 16.8656 14.3285 16.9258 14.2174 16.9258ZM52.7416 16.8656C52.6306 16.8656 52.5269 16.8053 52.4751 16.6998C52.2603 16.2742 52.0308 15.8486 51.7901 15.4344C51.7049 15.2912 51.7531 15.1029 51.8938 15.0163C52.0345 14.9297 52.2196 14.9786 52.3048 15.1217C52.5528 15.5473 52.7898 15.9842 53.0119 16.4211C53.086 16.5718 53.0267 16.7563 52.8823 16.8317C52.8342 16.8543 52.7861 16.8656 52.7416 16.8656ZM15.6873 14.4024C15.628 14.4024 15.5688 14.3835 15.517 14.3496C15.38 14.2555 15.3466 14.0634 15.4392 13.924C15.7132 13.5173 16.0057 13.1143 16.3056 12.7264C16.4092 12.5945 16.5981 12.5719 16.7277 12.6774C16.8573 12.7828 16.8795 12.9749 16.7758 13.1068C16.4833 13.4834 16.1982 13.8751 15.9316 14.2706C15.8761 14.3534 15.7835 14.4024 15.6873 14.4024ZM51.2681 14.3459C51.1718 14.3459 51.0792 14.3007 51.02 14.2141C50.7497 13.8186 50.4683 13.4269 50.1721 13.0503C50.0685 12.9184 50.0907 12.7263 50.2203 12.6209C50.3498 12.5154 50.5387 12.538 50.6423 12.6699C50.9422 13.054 51.2347 13.457 51.5124 13.8638C51.605 14.0031 51.5717 14.1915 51.4347 14.2894C51.3865 14.3308 51.3273 14.3459 51.2681 14.3459ZM17.4719 12.0974C17.4015 12.0974 17.3275 12.071 17.2719 12.0183C17.1498 11.9053 17.1386 11.7132 17.2497 11.5889C17.5755 11.2236 17.9162 10.862 18.2642 10.5193C18.3827 10.4025 18.5715 10.4063 18.69 10.5268C18.8048 10.6473 18.8011 10.8394 18.6826 10.9599C18.3419 11.2951 18.0124 11.6454 17.694 11.9994C17.6348 12.0635 17.5533 12.0974 17.4719 12.0974ZM49.4761 12.0522C49.3946 12.0522 49.3131 12.0183 49.2539 11.9505C48.9355 11.5964 48.6023 11.2462 48.2616 10.911C48.1432 10.7942 48.1395 10.6021 48.2542 10.4778C48.369 10.3573 48.5578 10.3536 48.68 10.4703C49.0281 10.813 49.3724 11.1709 49.6982 11.5362C49.8093 11.6605 49.8019 11.8526 49.676 11.9656C49.6205 12.0258 49.5464 12.0522 49.4761 12.0522ZM19.5415 10.056C19.4564 10.056 19.3712 10.0184 19.312 9.94679C19.2046 9.81873 19.2194 9.62665 19.3453 9.51743C19.7156 9.19729 20.1006 8.88845 20.4894 8.59467C20.6227 8.49298 20.8115 8.52311 20.9078 8.6587C21.0077 8.79429 20.9781 8.98637 20.8448 9.08429C20.4672 9.37054 20.0895 9.67184 19.7304 9.98445C19.6785 10.0334 19.6119 10.056 19.5415 10.056ZM47.399 10.0146C47.3323 10.0146 47.262 9.99198 47.2064 9.94302C46.8473 9.63418 46.4696 9.33288 46.0883 9.04663C45.955 8.94871 45.9254 8.75662 46.0253 8.62104C46.1216 8.48545 46.3104 8.45532 46.4437 8.55701C46.8362 8.85078 47.2212 9.15962 47.5915 9.476C47.7174 9.58522 47.7359 9.7773 47.6285 9.90536C47.5693 9.98069 47.4878 10.0146 47.399 10.0146ZM21.8593 8.3122C21.7593 8.3122 21.6631 8.26323 21.6075 8.17284C21.5187 8.02972 21.5594 7.8414 21.6964 7.75101C22.1037 7.4836 22.5257 7.22749 22.9515 6.99021C23.0959 6.90735 23.2773 6.96385 23.3588 7.11073C23.4402 7.25762 23.3847 7.44217 23.2403 7.52503C22.8256 7.75854 22.4147 8.00712 22.0185 8.26323C21.9704 8.29713 21.9148 8.3122 21.8593 8.3122ZM45.0775 8.2783C45.022 8.2783 44.9664 8.26324 44.9183 8.22934C44.5184 7.96946 44.1075 7.72465 43.6928 7.49113C43.5484 7.41204 43.4929 7.22373 43.5743 7.07684C43.6521 6.92995 43.8372 6.87345 43.9816 6.95631C44.4074 7.19359 44.8294 7.4497 45.2404 7.71335C45.3811 7.80374 45.4218 7.99206 45.333 8.13518C45.2737 8.22934 45.1775 8.2783 45.0775 8.2783ZM24.3807 6.89982C24.2659 6.89982 24.1585 6.83579 24.1104 6.7228C24.04 6.56838 24.1067 6.3876 24.2548 6.31603C24.6954 6.10889 25.1471 5.91303 25.5988 5.73225C25.7543 5.67199 25.9283 5.75108 25.9876 5.9055C26.0468 6.06369 25.969 6.2407 25.8172 6.30097C25.3766 6.47422 24.9398 6.66253 24.5103 6.86592C24.4658 6.89228 24.4251 6.89982 24.3807 6.89982ZM42.545 6.86969C42.5043 6.86969 42.4599 6.86215 42.4191 6.83956C41.9897 6.63617 41.5491 6.44786 41.1085 6.2746C40.953 6.21434 40.8752 6.03732 40.9344 5.87914C40.9937 5.72095 41.1677 5.64186 41.3232 5.70212C41.7786 5.87914 42.2303 6.07499 42.6709 6.28214C42.8227 6.3537 42.8857 6.53448 42.8153 6.68513C42.7672 6.80566 42.6598 6.86969 42.545 6.86969ZM27.065 5.84147C26.9354 5.84147 26.8206 5.75862 26.7799 5.62679C26.7318 5.46484 26.8206 5.29536 26.9761 5.24639C27.4389 5.09951 27.9128 4.96768 28.3868 4.85093C28.5497 4.81326 28.7089 4.91118 28.7496 5.0769C28.7866 5.23886 28.6904 5.40458 28.5275 5.44601C28.0683 5.559 27.6092 5.68705 27.1575 5.83017C27.1279 5.83771 27.0946 5.84147 27.065 5.84147ZM39.8533 5.81887C39.8237 5.81887 39.7941 5.81511 39.7645 5.80381C39.3128 5.66069 38.85 5.5364 38.3908 5.42341C38.2279 5.38574 38.128 5.22003 38.1687 5.05808C38.2094 4.89612 38.3686 4.79443 38.5278 4.83209C38.998 4.94508 39.4757 5.07691 39.9385 5.22003C40.0977 5.26899 40.1865 5.43847 40.1384 5.60043C40.0977 5.73601 39.9792 5.81887 39.8533 5.81887ZM29.8678 5.15976C29.7234 5.15976 29.5975 5.05431 29.5715 4.90742C29.5456 4.7417 29.653 4.58352 29.8159 4.55715C30.2935 4.47429 30.7786 4.4065 31.2636 4.35754C31.4302 4.3387 31.5746 4.46299 31.5931 4.62871C31.6079 4.7982 31.4894 4.94509 31.3265 4.96392C30.8563 5.01288 30.3824 5.07691 29.9159 5.156C29.9011 5.15977 29.8863 5.15976 29.8678 5.15976ZM37.0468 5.14847C37.032 5.14847 37.0135 5.14847 36.9987 5.1447C36.5322 5.06561 36.0583 5.00158 35.5881 4.95638C35.4215 4.94132 35.303 4.79066 35.3178 4.62494C35.3326 4.45922 35.4807 4.33494 35.6436 4.35C36.1286 4.39896 36.6137 4.46299 37.0913 4.54208C37.2542 4.56845 37.3653 4.72664 37.3393 4.89236C37.3171 5.04301 37.1912 5.14847 37.0468 5.14847ZM32.7372 4.86599C32.578 4.86599 32.4447 4.73793 32.4373 4.57222C32.4299 4.40273 32.5595 4.26338 32.7261 4.25584C33.2074 4.23701 33.7072 4.23701 34.1885 4.25208C34.3551 4.25585 34.4847 4.39897 34.4773 4.56845C34.4736 4.73417 34.3403 4.86223 34.1774 4.86223C34.1737 4.86223 34.17 4.86223 34.1663 4.86223C33.6998 4.84716 33.2111 4.84716 32.7446 4.86599C32.7446 4.86599 32.7409 4.86599 32.7372 4.86599Z" fill="#D7D7D7"/>
<path d="M9.84867 26.8992C9.84497 26.7674 9.84497 26.6356 9.84497 26.5C9.84497 13.2349 20.4563 2.44059 33.4964 2.44059C46.5365 2.44059 57.1478 13.2349 57.1478 26.5C57.1478 27.1026 57.1256 27.6977 57.0812 28.2852C57.8105 28.5075 58.5807 28.7184 59.4396 28.8954C59.51 28.1045 59.547 27.3022 59.547 26.5C59.547 19.423 56.8368 12.7679 51.9162 7.76244C46.9956 2.75696 40.4533 0 33.4964 0C26.5394 0 19.9972 2.75696 15.0766 7.76244C10.2078 12.7152 7.505 19.2875 7.44946 26.2853C8.32325 26.4623 9.10818 26.6732 9.84867 26.8992Z" fill="#D7D7D7"/>
<path d="M51.546 42.0283C47.203 47.2447 40.7237 50.5591 33.4964 50.5591C27.591 50.5591 22.1854 48.3482 18.0386 44.6949C16.3058 44.4576 14.9322 44.0923 13.6697 43.6893C14.1177 44.2203 14.5842 44.7363 15.0766 45.2373C19.9972 50.2427 26.5395 52.9997 33.4964 52.9997C40.4534 52.9997 46.9957 50.2427 51.9163 45.2373C52.6864 44.4539 53.3972 43.6328 54.0563 42.7778C53.2677 42.5104 52.4531 42.2543 51.546 42.0283Z" fill="#D7D7D7"/>
<path d="M65.8004 46.2095C60.2171 46.2095 57.3847 45.2227 54.6448 44.2698C51.9716 43.3395 49.4503 42.462 44.2668 42.462C39.0833 42.462 36.5582 43.3395 33.8888 44.2698C31.1489 45.2227 28.3165 46.2095 22.7332 46.2095C17.1499 46.2095 14.3175 45.2227 11.5776 44.2698C8.90446 43.3395 6.38307 42.462 1.19961 42.462C0.536867 42.462 0 41.9159 0 41.2417V25.7281C0 25.0539 0.536867 24.5078 1.19961 24.5078C6.78294 24.5078 9.61533 25.4946 12.3552 26.4475C15.0283 27.3778 17.5497 28.2553 22.7332 28.2553C27.9167 28.2553 30.4418 27.3778 33.1112 26.4475C35.8511 25.4946 38.6835 24.5078 44.2668 24.5078C49.8501 24.5078 52.6825 25.4946 55.4224 26.4475C58.0955 27.3778 60.6169 28.2553 65.8004 28.2553C66.4631 28.2553 67 28.8014 67 29.4756V44.9892C67 45.6596 66.4631 46.2095 65.8004 46.2095ZM2.39181 40.0364C7.19392 40.1683 9.81156 41.076 12.3478 41.9611C15.0209 42.8913 17.5423 43.7689 22.7258 43.7689C27.9093 43.7689 30.4343 42.8913 33.1038 41.9611C35.8437 41.0082 38.6761 40.0214 44.2594 40.0214C49.8427 40.0214 52.6751 41.0082 55.415 41.9611C57.8734 42.816 60.2022 43.6295 64.5971 43.7538V30.6809C59.7913 30.549 57.1773 29.6413 54.6411 28.7562C51.9679 27.826 49.4466 26.9484 44.2631 26.9484C39.0796 26.9484 36.5545 27.826 33.8851 28.7562C31.1452 29.7091 28.3128 30.6959 22.7295 30.6959C17.1462 30.6959 14.3138 29.7091 11.5739 28.7562C9.1155 27.9013 6.78664 27.0878 2.3955 26.9635V40.0364H2.39181Z" fill="#D7D7D7"/>
<path d="M22.2853 21.3287L23.7737 20.5038L24.5586 21.9689L19.7825 24.6204L18.9975 23.1553L20.4748 22.3343L18.5828 18.8052L17.6313 20.3795L16.7834 18.7977L18.2496 16.3872L19.3122 15.7959L22.2853 21.3287Z" fill="#D7D7D7"/>
<path d="M25.3548 20.7599C24.6809 20.21 24.1848 19.291 23.859 18.003C23.5405 16.7375 23.5443 15.7017 23.8775 14.892C24.207 14.086 24.8438 13.5587 25.7805 13.3139C26.721 13.069 27.5244 13.2197 28.1946 13.7658C28.8647 14.3119 29.3608 15.2159 29.6829 16.4851C30.0088 17.7732 30.0051 18.8203 29.6755 19.6338C29.346 20.4435 28.7129 20.9708 27.7725 21.2156C26.832 21.4605 26.0249 21.306 25.3548 20.7599ZM27.9761 18.9219C28.0279 18.5039 27.9465 17.8598 27.728 16.9898C27.5133 16.1424 27.2874 15.5511 27.0431 15.2159C26.7987 14.8769 26.5062 14.7564 26.1656 14.843C25.825 14.9334 25.625 15.1857 25.5732 15.6C25.5177 16.0143 25.5991 16.6471 25.8102 17.4907C26.0286 18.3608 26.2619 18.9634 26.5062 19.3061C26.7506 19.6451 27.0431 19.7731 27.3874 19.6827C27.728 19.5961 27.9243 19.3438 27.9761 18.9219Z" fill="#D7D7D7"/>
<path d="M31.8636 19.3474C31.3452 18.6468 31.0824 17.6337 31.0787 16.3042C31.075 14.9972 31.3304 13.9954 31.8451 13.2948C32.3597 12.5943 33.1039 12.244 34.0703 12.2403C35.0403 12.2365 35.7845 12.583 36.3029 13.2798C36.8212 13.9765 37.0841 14.9784 37.0878 16.2853C37.0915 17.6148 36.836 18.6317 36.3214 19.3361C35.8067 20.0404 35.0625 20.3944 34.0962 20.3944C33.1261 20.3982 32.3819 20.0479 31.8636 19.3474ZM34.8478 18.225C34.9996 17.8333 35.0773 17.1892 35.0736 16.2928C35.0699 15.4191 34.9922 14.7901 34.8367 14.4021C34.6812 14.0142 34.4257 13.8221 34.074 13.8221C33.7222 13.8221 33.4705 14.018 33.315 14.4059C33.1632 14.7938 33.0854 15.4266 33.0891 16.3004C33.0928 17.1968 33.1706 17.8408 33.3261 18.2325C33.4816 18.6242 33.7333 18.8201 34.0888 18.8201C34.4442 18.8125 34.696 18.6167 34.8478 18.225Z" fill="#D7D7D7"/>
<path d="M39.2131 16.5108C38.9872 15.9911 38.9946 15.3546 39.2353 14.6013C39.4723 13.8631 39.8351 13.3546 40.3164 13.0759C40.8014 12.7972 41.3531 12.7596 41.9751 12.9667C42.5971 13.1739 43.0192 13.5354 43.2451 14.0552C43.4709 14.5749 43.4672 15.2039 43.2266 15.9421C42.9859 16.6954 42.6194 17.2114 42.138 17.4901C41.653 17.7688 41.1013 17.8065 40.4793 17.5993C39.8647 17.3959 39.4389 17.0306 39.2131 16.5108ZM40.9273 21.1585L39.3353 20.6275L46.1108 14.4921L47.6917 15.0194L40.9273 21.1585ZM41.3013 16.2886C41.4235 16.1455 41.5568 15.8593 41.6937 15.4337C41.8233 15.0307 41.8789 14.7256 41.8567 14.526C41.8344 14.3264 41.7493 14.2021 41.5938 14.1493C41.442 14.0966 41.2976 14.1456 41.168 14.2962C41.0384 14.4469 40.9088 14.7218 40.7792 15.1286C40.6459 15.5467 40.5867 15.8555 40.6052 16.0476C40.6237 16.2434 40.7089 16.3639 40.8644 16.4167C41.031 16.4769 41.1791 16.4317 41.3013 16.2886ZM43.8079 21.5351C43.5894 21.0192 43.6005 20.3826 43.8412 19.6294C44.0781 18.8912 44.4373 18.3827 44.9149 18.1002C45.3925 17.8178 45.9405 17.7839 46.5625 17.9872C47.1919 18.1982 47.614 18.5597 47.8361 19.072C48.0583 19.5842 48.0472 20.2169 47.8065 20.9589C47.5622 21.7122 47.203 22.2282 46.7291 22.5106C46.2515 22.7931 45.6998 22.827 45.0704 22.6198C44.4447 22.4127 44.0263 22.0511 43.8079 21.5351ZM45.8812 21.3016C46.0108 21.1547 46.1404 20.8723 46.2774 20.4542C46.407 20.0512 46.4625 19.7461 46.4403 19.5465C46.4181 19.3469 46.3329 19.2226 46.1774 19.1699C46.0256 19.1171 45.8812 19.1699 45.7517 19.3168C45.6221 19.4674 45.4925 19.7424 45.3629 20.1491C45.2296 20.5672 45.1704 20.876 45.1889 21.0681C45.2074 21.264 45.2925 21.3845 45.448 21.4372C45.6073 21.4937 45.7517 21.4447 45.8812 21.3016Z" fill="#D7D7D7"/>
<path d="M10.8889 34.5146L10.3372 36.9778C10.0522 37.0381 9.74484 37.0644 9.41162 37.0531C9.0784 37.0456 8.74518 37.0004 8.40825 36.9213C7.8825 36.8008 7.44931 36.5936 7.10868 36.2999C6.76805 36.0099 6.5348 35.6483 6.41261 35.2189C6.29043 34.7896 6.28673 34.3188 6.40151 33.799C6.51628 33.2943 6.71622 32.8725 7.01241 32.541C7.30491 32.2096 7.66405 31.9874 8.08984 31.8669C8.51562 31.7501 8.98213 31.7501 9.48937 31.8669C9.8374 31.946 10.1558 32.0702 10.4446 32.2322C10.7334 32.3942 10.9593 32.5825 11.1148 32.7859L10.5076 33.6107C10.3187 33.4111 10.1299 33.2566 9.93737 33.1399C9.74484 33.0269 9.5338 32.9403 9.29685 32.8875C8.86736 32.7896 8.51932 32.8386 8.25275 33.0344C7.98617 33.2303 7.79734 33.5843 7.68627 34.089C7.56779 34.6125 7.59 35.0268 7.75291 35.3319C7.91582 35.637 8.22683 35.8404 8.68223 35.9458C8.89327 35.9948 9.11172 36.0212 9.33387 36.0249L9.5375 35.1135L8.69705 34.9176L8.89328 34.0401L10.8889 34.5146Z" fill="#D7D7D7"/>
<path d="M11.5923 37.8515L13.1399 33.0645L14.384 33.4825L13.1658 37.2451L15.1541 37.9117L14.8245 38.9324L11.5923 37.8515Z" fill="#D7D7D7"/>
<path d="M17.098 38.9519C16.7685 38.5414 16.6463 37.9802 16.724 37.2684L17.0424 34.3721L18.3087 34.5152L17.9829 37.4605C17.9422 37.822 17.9903 38.1083 18.131 38.3192C18.268 38.5301 18.4864 38.6506 18.7789 38.6845C19.0677 38.7184 19.3047 38.6469 19.4824 38.4699C19.6601 38.2928 19.7712 38.0254 19.8082 37.6714L20.134 34.7261L21.4114 34.873L21.093 37.7693C21.0152 38.4736 20.7671 38.9896 20.3525 39.3173C19.9341 39.6487 19.375 39.773 18.6678 39.6901C17.9496 39.6073 17.4275 39.3625 17.098 38.9519Z" fill="#D7D7D7"/>
<path d="M24.0178 39.8258L23.8364 35.8673L22.3628 35.9389L22.3147 34.8655L26.5799 34.6621L26.6281 35.7355L25.1545 35.8071L25.3359 39.7655L24.0178 39.8258Z" fill="#D7D7D7"/>
<path d="M28.6386 39.4038L27.4167 34.5189L30.8415 33.6338L31.0896 34.6206L28.8977 35.1893L29.1273 36.1083L31.1785 35.5772L31.4265 36.564L29.3753 37.0951L29.6271 38.0969L31.819 37.532L32.0671 38.5187L28.6386 39.4038Z" fill="#D7D7D7"/>
<path d="M35.1586 32.1381L36.3397 31.7803L37.7578 36.6087L36.8322 36.8912L33.8739 34.8084L34.681 37.5465L33.5147 37.9006L32.0967 33.0721L33.0112 32.7934L35.9658 34.8649L35.1586 32.1381Z" fill="#D7D7D7"/>
<path d="M41.7268 36.1342L41.6194 31.0949L45.0775 31.0195L45.0997 32.059L42.9301 32.108L42.9486 33.027L44.9812 32.9818L45.0035 34.0138L42.9708 34.059L43.0152 36.1041L41.7268 36.1342Z" fill="#D7D7D7"/>
<path d="M50.6053 36.5672L49.228 36.409L48.7763 34.669C48.7244 34.4731 48.5615 34.3602 48.2875 34.3263L47.8173 34.2735L47.5989 36.2207L46.3215 36.0738L46.8806 31.0684L49.1687 31.332C49.7648 31.3998 50.1943 31.5806 50.4646 31.8781C50.7349 32.1719 50.8423 32.5598 50.7904 33.0457C50.7534 33.3847 50.6312 33.6634 50.4276 33.8894C50.2239 34.1153 49.9537 34.2622 49.6204 34.3263C49.7537 34.3715 49.8722 34.4505 49.9722 34.5673C50.0721 34.6841 50.1425 34.8309 50.1869 35.0117L50.6053 36.5672ZM49.3502 33.3206C49.4834 33.2491 49.5612 33.121 49.5834 32.9365C49.6056 32.7444 49.5575 32.5975 49.4464 32.4996C49.3354 32.4016 49.1354 32.3339 48.854 32.3037L48.0395 32.2096L47.921 33.2867L48.7355 33.3809C49.0132 33.411 49.2169 33.3922 49.3502 33.3206Z" fill="#D7D7D7"/>
<path d="M51.7087 36.8721L53.186 32.0625L56.559 33.1359L56.2591 34.1076L54.1005 33.4221L53.8228 34.3261L55.8407 34.9663L55.5408 35.9381L53.5229 35.2978L53.2194 36.2846L55.3779 36.97L55.078 37.9418L51.7087 36.8721Z" fill="#D7D7D7"/>
<path d="M56.5144 38.5182L57.7658 33.6445L61.1832 34.556L60.9315 35.5428L58.7433 34.959L58.5063 35.878L60.5538 36.4241L60.302 37.4109L58.2546 36.8648L57.9991 37.8628L60.1873 38.4466L59.9355 39.4334L56.5144 38.5182Z" fill="#D7D7D7"/>
</svg>
