<svg width="70" height="51" viewBox="0 0 70 51" fill="none" xmlns="http://www.w3.org/2000/svg">
<path d="M2.8572 35.6479L5.00535 30.722C5.13152 30.4313 5.13152 30.1004 5.00535 29.8097L2.8572 24.8838H6.70861V22.6113H1.13069C0.748868 22.6113 0.393615 22.8051 0.184443 23.126C-0.0247293 23.4468 -0.0579377 23.8512 0.0947912 24.2021L2.73765 30.2642L0.0947912 36.3263C-0.0579377 36.6772 -0.0247293 37.0815 0.184443 37.4024C0.393615 37.7232 0.748868 37.917 1.13069 37.917H14.1757C13.7441 37.1851 13.3457 36.4265 12.9904 35.6445H2.8572V35.6479Z" fill="#D7D7D7"/>
<path d="M67.2623 30.2671L69.9052 24.205C70.0579 23.8541 70.0247 23.4497 69.8155 23.1289C69.6064 22.8081 69.2511 22.6143 68.8693 22.6143H63.2913V24.8867H67.1428L64.9946 29.8126C64.8684 30.1033 64.8684 30.4342 64.9946 30.7249L67.1428 35.6508H57.0095C56.6543 36.4328 56.2592 37.1881 55.8242 37.9233H68.8693C69.2511 37.9233 69.6064 37.7295 69.8155 37.4086C70.0247 37.0878 70.0579 36.6834 69.9052 36.3326L67.2623 30.2671Z" fill="#D7D7D7"/>
<path d="M24.6909 18.982C26.849 15.5366 30.6639 13.2407 35.0001 13.2407C39.3363 13.2407 43.1512 15.5366 45.3093 18.982H46.6208C44.3431 14.8849 39.987 12.1045 35.0001 12.1045C30.0131 12.1045 25.657 14.8816 23.3794 18.982H24.6909Z" fill="#D7D7D7"/>
<path d="M45.3093 32.0186C43.1512 35.464 39.3363 37.7599 35.0001 37.7599C30.6639 37.7599 26.849 35.464 24.6909 32.0186H23.3794C25.657 36.1157 30.0131 38.8961 35.0001 38.8961C39.987 38.8961 44.3431 36.119 46.6208 32.0186H45.3093Z" fill="#D7D7D7"/>
<path d="M12.8512 18.9817C15.6568 9.33714 24.525 2.2758 35.0002 2.2758C45.4754 2.2758 54.3437 9.34048 57.1492 18.9817H59.4999C58.3744 14.6674 56.1299 10.7106 52.9127 7.46904C48.1283 2.65343 41.7668 0 35.0002 0C28.2337 0 21.8722 2.65343 17.0878 7.46904C13.8705 10.7073 11.626 14.664 10.5005 18.9817H12.8512Z" fill="#D7D7D7"/>
<path d="M57.1492 32.0186C54.3437 41.6631 45.4754 48.7245 35.0002 48.7245C24.525 48.7245 15.6568 41.6598 12.8512 32.0186H10.5005C11.626 36.3329 13.8705 40.2896 17.0878 43.5312C21.8722 48.3468 28.2337 51.0003 35.0002 51.0003C41.7668 51.0003 48.1283 48.3468 52.9127 43.5312C56.1299 40.293 58.3744 36.3362 59.4999 32.0186H57.1492Z" fill="#D7D7D7"/>
<path d="M63.2914 33.1547H6.70869C6.08449 33.1547 5.57983 32.6468 5.57983 32.0185V18.9819C5.57983 18.3537 6.08449 17.8457 6.70869 17.8457H63.2914C63.9156 17.8457 64.4203 18.3537 64.4203 18.9819V32.0185C64.4203 32.6468 63.9156 33.1547 63.2914 33.1547ZM7.83756 30.8856H62.1659V20.1215H7.83756V30.8856Z" fill="#D7D7D7"/>
<path d="M14.365 28.8271V22.1602H15.8591C16.2542 22.1602 16.6094 22.2638 16.9249 22.4743C17.1971 22.6514 17.3897 22.9254 17.5059 23.2997C17.569 23.4969 17.6022 23.7342 17.6022 24.0082C17.6022 24.456 17.4826 24.8136 17.2469 25.0809C17.1473 25.1946 17.0311 25.2814 16.8983 25.3416C17.1208 25.4251 17.31 25.5956 17.4627 25.8462C17.5657 26.0166 17.642 26.2372 17.6885 26.5046C17.7117 26.6416 17.725 26.7953 17.725 26.9657C17.725 27.3868 17.6453 27.7444 17.486 28.0385C17.3631 28.2691 17.1872 28.4529 16.9647 28.5899C16.7124 28.7469 16.46 28.8238 16.2077 28.8238H14.365V28.8271ZM15.4407 24.8838H15.8591C16.1679 24.8838 16.377 24.73 16.4833 24.4259C16.5231 24.3123 16.5397 24.1719 16.5397 24.0048C16.5397 23.7275 16.4733 23.5203 16.3405 23.3766C16.2177 23.2462 16.0583 23.1794 15.8591 23.1794H15.4407V24.8838V24.8838ZM15.4407 27.8346H15.8591C16.1977 27.8346 16.4301 27.6608 16.563 27.3066C16.6094 27.1863 16.6327 27.0493 16.6327 26.8922C16.6327 26.5213 16.563 26.2506 16.4202 26.0801C16.294 25.9231 16.1081 25.8462 15.8591 25.8462H15.4407V27.8346Z" fill="#D7D7D7"/>
<path d="M21.6528 28.9003C21.2112 28.9003 20.8393 28.7465 20.5339 28.4391C20.2284 28.1316 20.0757 27.7574 20.0757 27.3162V22.1631H21.0518V27.3029C21.0518 27.4633 21.1083 27.597 21.2212 27.7106C21.334 27.8209 21.4702 27.8777 21.6262 27.8777C21.7856 27.8777 21.9184 27.8209 22.0313 27.7106C22.1408 27.6003 22.1973 27.4633 22.1973 27.3029V22.1631H23.2365V27.3162C23.2365 27.764 23.0805 28.1383 22.7717 28.4424C22.4629 28.7499 22.0877 28.9003 21.6528 28.9003Z" fill="#D7D7D7"/>
<path d="M26.5832 23.1762H25.5208V22.167H28.6384V23.1762H27.5826V28.8273H26.5832V23.1762Z" fill="#D7D7D7"/>
<path d="M32.3969 28.914C31.9554 28.914 31.5835 28.7603 31.2747 28.4495C30.9659 28.1387 30.8132 27.7644 30.8132 27.3267V23.6907C30.8132 23.2463 30.9693 22.872 31.278 22.5612C31.5868 22.2504 31.962 22.0967 32.3969 22.0967C32.8385 22.0967 33.2104 22.2537 33.5159 22.5645C33.8213 22.8753 33.974 23.2529 33.974 23.6907V24.4527H32.9381V23.6707C32.9381 23.5103 32.8817 23.3733 32.7688 23.2596C32.6559 23.146 32.5198 23.0892 32.3604 23.0892C32.2011 23.0892 32.0682 23.146 31.9554 23.2596C31.8458 23.3733 31.7893 23.5103 31.7893 23.6707V27.3166C31.7893 27.4771 31.8458 27.6107 31.9554 27.7243C32.0649 27.8346 32.2011 27.8914 32.3604 27.8914C32.5198 27.8914 32.6559 27.8346 32.7688 27.7243C32.8817 27.6141 32.9381 27.4771 32.9381 27.3166V26.3976H33.974V27.3267C33.974 27.7711 33.818 28.1454 33.5092 28.4529C33.2004 28.757 32.8286 28.914 32.3969 28.914Z" fill="#D7D7D7"/>
<path d="M37.2809 26.0034V28.8273H36.2815V22.167H37.2809V24.9942H38.4861V22.167H39.4855V28.8273H38.4861V26.0034H37.2809Z" fill="#D7D7D7"/>
<path d="M41.8628 28.8271V22.1602H44.7049V23.1694H42.8622V24.9874H44.2102V25.9966H42.8622V27.8146H44.7049V28.8238H41.8628V28.8271Z" fill="#D7D7D7"/>
<path d="M48.4534 22.167C49.0112 22.167 49.4196 22.3207 49.6786 22.6282C49.9077 22.8989 50.0206 23.2731 50.0206 23.7544V24.7235C50.0206 25.1947 49.8413 25.5924 49.486 25.9199L50.2264 28.8273H49.1473L48.5431 26.3176C48.5132 26.3176 48.4866 26.3176 48.4534 26.3176H47.879V28.8273H46.8796V22.167H48.4534V22.167ZM49.0511 23.7711C49.0511 23.3834 48.8618 23.1929 48.48 23.1929H47.879V25.325H48.48C48.6393 25.325 48.7722 25.2682 48.8851 25.1546C48.9946 25.041 49.0511 24.904 49.0511 24.7469V23.7711Z" fill="#D7D7D7"/>
<path d="M53.2943 26.0367L51.9563 22.1602H53.0553L53.7957 24.5529L54.5295 22.1602H55.6351L54.2937 26.0367V28.8271H53.2943V26.0367V26.0367Z" fill="#D7D7D7"/>
<path d="M21.4901 12.6825L21.3772 12.5288L22.7086 11.2422L23.0805 11.7568L22.9012 11.8838L22.5891 11.6733L22.0944 12.1478L22.6555 12.736L22.9443 12.4586L22.8447 12.2414L22.9908 12.0275L23.4689 12.6291L23.3361 12.8229L23.0838 12.6391L22.8148 12.8997L23.2066 13.3108L23.5619 13.1136L23.6781 13.2707L22.8447 14.0727L22.7352 13.9257L22.8613 13.6517L21.7856 12.5255L21.4901 12.6825Z" fill="#D7D7D7"/>
<path d="M25.6502 11.6866L24.7604 12.2914L24.6807 12.1277L24.8733 11.867L24.03 10.6172L23.7378 10.7375L23.6382 10.557C23.7378 10.4634 23.8606 10.3565 24.0001 10.2395C24.1429 10.1226 24.2624 10.029 24.362 9.96216C24.6143 9.78838 24.8301 9.69481 25.0094 9.6781C25.1887 9.66139 25.3348 9.73492 25.4477 9.90535C25.4942 9.97553 25.5241 10.0591 25.5307 10.1493C25.5407 10.2395 25.5307 10.3331 25.5008 10.4233C25.4743 10.5136 25.4344 10.5971 25.378 10.6706L25.7897 10.8177C25.9026 10.8578 25.9922 10.8879 26.0586 10.9046C26.125 10.9246 26.1947 10.9313 26.2645 10.9346C26.3342 10.9346 26.4039 10.9246 26.4769 10.8979L26.5367 10.8778L26.5998 11.0416C26.5467 11.1118 26.4736 11.1786 26.384 11.2387C26.2512 11.329 26.1117 11.3724 25.9723 11.3624C25.8328 11.3524 25.6834 11.3056 25.5241 11.2187L25.1289 11.0115L24.953 11.1318L25.2584 11.5863L25.5473 11.5128L25.6502 11.6866ZM24.3587 10.2429L24.8102 10.9146L25.0592 10.7475C25.109 10.6706 25.1356 10.5938 25.1389 10.5136C25.1456 10.4334 25.119 10.3532 25.0659 10.2729C25.0227 10.2061 24.9663 10.156 24.8999 10.1226C24.8334 10.0892 24.7637 10.0758 24.6874 10.0825C24.611 10.0892 24.5346 10.1192 24.4616 10.1693C24.435 10.1894 24.4118 10.2061 24.3919 10.2195C24.3753 10.2295 24.362 10.2395 24.3587 10.2429Z" fill="#D7D7D7"/>
<path d="M26.517 8.87292L26.4639 8.68911L28.1539 7.92383L28.363 8.52537L28.1472 8.58552L27.8982 8.2881L27.264 8.57549L27.5628 9.24721L27.9281 9.08012L27.9048 8.84618L28.1107 8.70249L28.3531 9.39091L28.1539 9.52458L27.9845 9.28396L27.6459 9.43769L27.9347 10.0827L28.6021 9.7819L28.6353 9.34078L28.8378 9.27728L29.0437 9.86544L27.3238 10.6441L27.264 10.4703L27.4765 10.2564L26.8391 8.82948L26.517 8.87292Z" fill="#D7D7D7"/>
<path d="M30.4944 9.45085C30.345 9.49095 30.2089 9.50432 30.0761 9.49095C29.9466 9.47758 29.847 9.44083 29.7773 9.38402L29.671 8.85265L29.9101 8.82258L30.0628 9.11332C30.1093 9.15342 30.1691 9.18016 30.2454 9.19353C30.3185 9.2069 30.3948 9.20355 30.4646 9.1835C30.5177 9.17014 30.5609 9.14674 30.604 9.11332C30.6439 9.0799 30.6737 9.0398 30.6903 8.99302C30.7069 8.94623 30.7102 8.8961 30.6936 8.84263C30.6804 8.7925 30.6505 8.7524 30.6073 8.72233C30.5642 8.69225 30.511 8.66885 30.4546 8.65548C30.3982 8.63878 30.3185 8.62207 30.2189 8.60536C30.0794 8.57862 29.9632 8.55523 29.8736 8.52516C29.7839 8.49842 29.7009 8.45163 29.6212 8.3848C29.5449 8.31796 29.4884 8.22773 29.4552 8.11076C29.4187 7.97709 29.422 7.8501 29.4685 7.73314C29.515 7.61617 29.5913 7.51926 29.6943 7.43905C29.7972 7.35885 29.9134 7.29869 30.0462 7.26527C30.1392 7.23854 30.2388 7.22852 30.3517 7.22852C30.4612 7.22852 30.5509 7.24522 30.614 7.27864C30.6173 7.28867 30.6339 7.36887 30.6605 7.51926C30.687 7.66964 30.7069 7.7699 30.7169 7.82337L30.4845 7.8501L30.355 7.58943C30.3152 7.55267 30.262 7.52928 30.1923 7.51258C30.1226 7.49587 30.0562 7.4992 29.9931 7.51591C29.9234 7.53596 29.8703 7.57273 29.8371 7.6262C29.8038 7.67967 29.8005 7.74316 29.8204 7.82002C29.8337 7.87349 29.8669 7.91694 29.9134 7.95036C29.9599 7.98378 30.0163 8.00717 30.0794 8.02388C30.1425 8.04059 30.2288 8.0573 30.3351 8.07735C30.4812 8.10408 30.6007 8.13082 30.697 8.15755C30.7899 8.18763 30.8796 8.23442 30.9593 8.29791C31.0389 8.36475 31.0954 8.45498 31.1253 8.5686C31.1651 8.70896 31.1552 8.84263 31.0987 8.96294C31.0423 9.08325 30.9559 9.18684 30.8431 9.27038C30.7368 9.36062 30.6173 9.41743 30.4944 9.45085Z" fill="#D7D7D7"/>
<path d="M31.8457 7.06833L31.8557 6.87116L32.9314 6.76088L32.9248 6.95805L32.6492 7.07835L32.7123 7.69325L33.6253 7.59968L33.5656 6.99147L33.2468 6.92463L33.2501 6.72746L34.3325 6.61719L34.3259 6.81436L34.0503 6.93466L34.2097 8.50198L34.5251 8.55211V8.74928L33.4493 8.85957L33.4527 8.67576L33.7249 8.53875L33.6618 7.90379L32.7488 7.99736L32.8152 8.64568L33.1339 8.69581L33.1273 8.89299L32.0582 9.00326V8.81946L32.3338 8.68245L32.1777 7.13517L31.8457 7.06833Z" fill="#D7D7D7"/>
<path d="M36.8228 8.82L36.8892 8.63286L37.1913 8.58272L37.603 7.08558L37.3141 6.93853L37.3739 6.74805L38.2206 6.91848L38.2803 7.2794L38.4231 8.39224L39.0274 7.39971L39.2033 7.11565L40.0367 7.28274L39.9736 7.47323L39.6814 7.49662L39.4789 9.05059L39.7611 9.19762L39.7014 9.3948L38.7153 9.19762L38.785 9.01048L39.0373 8.95033L39.1867 7.73055L38.3932 9.06061L38.0413 9.03722L37.8421 7.47991L37.5266 8.65291L37.769 8.79326L37.6993 8.99043L36.8228 8.82Z" fill="#D7D7D7"/>
<path d="M41.1721 7.87079L41.2684 7.70703L42.9817 8.41885L42.6928 8.98362L42.5002 8.87L42.5434 8.48234L41.8993 8.215L41.6204 8.89673L41.9922 9.05046L42.145 8.87334L42.3907 8.92347L42.0619 9.57512L41.8262 9.52165L41.886 9.23091L41.544 9.08722L41.2751 9.73888L41.9524 10.0196L42.291 9.73888L42.477 9.84248L42.1948 10.3972L40.4517 9.67204L40.538 9.51163L40.8401 9.51832L41.4344 8.07464L41.1721 7.87079Z" fill="#D7D7D7"/>
<path d="M42.9219 10.7615L43.0381 10.6211L43.3336 10.6478L44.8808 9.52832L45.2825 9.68872L44.8443 11.627L44.987 11.8576L44.8675 12.0113L43.9744 11.4399L44.0906 11.2995L44.406 11.3396L44.489 10.9687L43.9047 10.5944L43.6058 10.8316L43.8117 11.1023L43.6888 11.2561L42.9219 10.7615ZM44.1304 10.4206L44.5654 10.698L44.7546 9.92934L44.1304 10.4206Z" fill="#D7D7D7"/>
<path d="M46.9328 10.9316L48.4236 12.3118L47.9289 12.7697L47.7795 12.5792L47.992 12.2183L47.6865 11.9342L46.5875 13.1373L46.7768 13.418L46.6241 13.5483L45.8206 12.8064L45.9567 12.6828L46.2422 12.8098L47.3379 11.61L47.0391 11.3327L46.6473 11.5867L46.5045 11.4095L46.9328 10.9316Z" fill="#D7D7D7"/>
<path d="M20.647 37.7198L20.0659 37.0147L20.1888 36.9412L20.4013 37.0682L21.3044 36.3129L21.1915 36.0957L21.321 36.0088C21.4272 36.1057 21.5235 36.1926 21.6032 36.2728C21.6829 36.353 21.7659 36.4399 21.8489 36.5435C21.985 36.7072 22.0614 36.8576 22.0813 36.998C22.1012 37.135 22.0414 37.2653 21.902 37.3789C21.8223 37.4458 21.7327 37.4825 21.6331 37.4959C21.5335 37.5059 21.4338 37.4926 21.3342 37.4491C21.2346 37.4057 21.1483 37.3388 21.0719 37.2453C21.0553 37.2252 21.0288 37.1918 20.9989 37.1484L21.1085 37.0147L21.1384 37.0514C21.2147 37.1417 21.2944 37.1918 21.3774 37.2018C21.4604 37.2118 21.5401 37.1851 21.6165 37.1183C21.6961 37.0514 21.7426 36.9746 21.7559 36.891C21.7692 36.8041 21.7426 36.7173 21.6696 36.6304C21.6596 36.617 21.6463 36.6036 21.6297 36.5869C21.6131 36.5702 21.6032 36.5602 21.5932 36.5502L20.6503 37.3388L20.793 37.6329L20.647 37.7198Z" fill="#D7D7D7"/>
<path d="M22.141 39.3006L21.5334 38.7291L21.643 38.6389L21.8721 38.7391L22.6656 37.8836L22.5262 37.6831L22.6457 37.5762C22.7354 37.6363 22.835 37.7098 22.9479 37.7967C23.0607 37.8836 23.1504 37.9605 23.2201 38.024C23.3927 38.1877 23.5023 38.3348 23.5455 38.4651C23.5886 38.5988 23.5588 38.7224 23.4525 38.836C23.406 38.8862 23.3529 38.9196 23.2832 38.943C23.2168 38.9664 23.147 38.9731 23.074 38.9697C23.001 38.963 22.9312 38.9463 22.8682 38.9196L22.8283 39.2571C22.8184 39.3507 22.8117 39.4209 22.8084 39.4777C22.8051 39.5311 22.8117 39.5846 22.8217 39.6381C22.8316 39.6916 22.8549 39.7417 22.8848 39.7918L22.9113 39.8352L22.7984 39.9121C22.7354 39.882 22.6756 39.8386 22.6125 39.7818C22.5195 39.6949 22.4664 39.598 22.4498 39.491C22.4332 39.3841 22.4432 39.2604 22.4797 39.1268L22.566 38.7892L22.4465 38.6756L22.1576 38.9864L22.2639 39.1936L22.141 39.3006ZM23.001 38.0708L22.576 38.5286L22.7453 38.689C22.8117 38.7124 22.8748 38.7191 22.9346 38.709C22.9943 38.699 23.0508 38.6656 23.1006 38.6121C23.1437 38.5654 23.1703 38.5152 23.1836 38.4617C23.1969 38.4049 23.1969 38.3515 23.1769 38.2947C23.1603 38.2378 23.1238 38.1844 23.074 38.1376C23.0541 38.1209 23.0375 38.1042 23.0242 38.0942C23.0109 38.0808 23.0043 38.0741 23.001 38.0708Z" fill="#D7D7D7"/>
<path d="M24.3157 39.2173L24.4153 39.1104L25.5807 39.9525L25.2619 40.3268L25.1391 40.2065L25.242 39.9224L24.8038 39.6083L24.4751 40.0728L24.7274 40.2566L24.8735 40.1497L25.0494 40.2332L24.6876 40.6643L24.5215 40.5808L24.6178 40.3736L24.3854 40.2065L24.07 40.6509L24.5315 40.9851L24.837 40.8348L24.9598 40.9484L24.6477 41.316L23.4624 40.4604L23.5554 40.3535L23.7811 40.4137L24.4817 39.4312L24.3157 39.2173Z" fill="#D7D7D7"/>
<path d="M25.3584 41.7869L25.4481 41.6633L25.6838 41.69L26.308 40.6641L26.1221 40.4936L26.2051 40.3633L26.7994 40.6707L26.7662 40.9514L26.6334 41.8103L27.2941 41.2021L27.4833 41.0283L28.0677 41.3324L27.9814 41.4594L27.7589 41.4126L27.2775 42.5255L27.4568 42.6959L27.3704 42.8296L26.6798 42.4686L26.7695 42.345L26.9687 42.355L27.3372 41.4795L26.464 42.2982L26.2051 42.2046L26.3877 41.0049L25.9029 41.8103L26.0557 41.9674L25.9627 42.0977L25.3584 41.7869Z" fill="#D7D7D7"/>
<path d="M28.662 41.7167L28.7318 41.583L29.522 41.8737L29.4522 42.0141L29.2132 42.0007L28.8015 43.1336L29.004 43.2773L28.9343 43.421L28.1541 43.1336L28.2138 43.0033H28.4562L28.8646 41.8737L28.662 41.7167Z" fill="#D7D7D7"/>
<path d="M30.2823 42.3551L30.0598 42.2214L30.1229 42.0811L30.9364 42.2749L30.8832 42.4152L30.6508 42.4319L30.4815 43.1471C30.445 43.3042 30.4549 43.4278 30.5114 43.5214C30.5678 43.615 30.6608 43.6751 30.7869 43.7085C30.9065 43.7353 31.0061 43.7219 31.0891 43.6651C31.1721 43.6083 31.2318 43.5047 31.265 43.3543L31.4377 42.6258L31.2252 42.4954L31.2783 42.3517L31.9623 42.5155L31.9092 42.6592L31.6801 42.6759L31.5107 43.371C31.451 43.6183 31.3481 43.7887 31.2053 43.8823C31.0625 43.9759 30.8733 43.9926 30.6442 43.9391C30.5213 43.909 30.4117 43.8689 30.3188 43.8121C30.2258 43.7587 30.1561 43.6751 30.1096 43.5615C30.0631 43.4479 30.0598 43.3008 30.103 43.1204L30.2823 42.3551Z" fill="#D7D7D7"/>
<path d="M32.3938 44.276L32.427 44.1257L32.6561 44.0588L32.8321 42.8691L32.5963 42.7856L32.6229 42.6318L33.2903 42.682L33.3699 42.956L33.5824 43.7982L33.9543 42.9794L34.0639 42.7455L34.7213 42.7956L34.6914 42.9493L34.4689 42.9928L34.4557 44.2059L34.6881 44.2927L34.6615 44.4498L33.8846 44.3897L33.9211 44.2393L34.1104 44.1691V43.2167L33.6256 44.3128L33.3533 44.3295L33.0545 43.1532L32.9184 44.0856L33.1176 44.1691L33.0811 44.3262L32.3938 44.276Z" fill="#D7D7D7"/>
<path d="M37.5998 44.2795C37.4305 44.3029 37.2811 44.2895 37.1516 44.2361C37.0221 44.1826 36.9159 44.0957 36.8362 43.9787C36.7565 43.8618 36.7034 43.7214 36.6802 43.5577C36.6569 43.3872 36.6735 43.2335 36.7267 43.0898C36.7831 42.9461 36.8727 42.8291 36.9989 42.7356C37.1251 42.642 37.2778 42.5818 37.4604 42.5551C37.6264 42.5317 37.7758 42.5451 37.9086 42.5952C38.0381 42.6453 38.1444 42.7289 38.2274 42.8492C38.3104 42.9662 38.3635 43.1165 38.3867 43.2903C38.4067 43.4207 38.3967 43.5476 38.3668 43.668C38.3336 43.7883 38.2805 43.8919 38.2008 43.9854C38.1245 44.0757 38.0282 44.1458 37.9153 44.1926C37.9684 44.2728 38.0414 44.3296 38.141 44.3664C38.2373 44.4031 38.3668 44.4265 38.5295 44.4332C38.5295 44.4399 38.5295 44.4667 38.5295 44.5034C38.5295 44.5435 38.5295 44.5669 38.5262 44.5736C38.4399 44.6237 38.3436 44.6538 38.234 44.6705C38.141 44.6839 38.0547 44.6772 37.975 44.6538C37.892 44.6304 37.8256 44.5836 37.7692 44.5201C37.7127 44.4533 37.6829 44.3697 37.6696 44.2695C37.6497 44.2695 37.6264 44.2728 37.5998 44.2795ZM37.4106 42.7757C37.2678 42.7957 37.1716 42.8592 37.1151 42.9695C37.0587 43.0798 37.0454 43.2268 37.072 43.4106C37.0886 43.5242 37.1217 43.6312 37.1716 43.7348C37.2247 43.8384 37.2944 43.9219 37.3874 43.9888C37.4803 44.0556 37.5932 44.0823 37.726 44.0756C37.8123 44.0322 37.8721 43.9787 37.9153 43.9119C37.9551 43.8484 37.9817 43.7749 37.9883 43.6947C37.995 43.6145 37.9916 43.5243 37.9784 43.4207C37.9617 43.3104 37.9319 43.2034 37.8821 43.0965C37.8323 42.9929 37.7692 42.906 37.6895 42.8425C37.6098 42.7824 37.5169 42.759 37.4106 42.7757Z" fill="#D7D7D7"/>
<path d="M39.1438 42.5091L38.8849 42.5025L38.8716 42.3487L39.6718 42.1148L39.695 42.2652L39.5024 42.3955L39.705 43.1007C39.7481 43.2544 39.8178 43.3613 39.9141 43.4148C40.0071 43.4683 40.12 43.475 40.2461 43.4382C40.3624 43.4048 40.4454 43.3413 40.4885 43.2511C40.5317 43.1608 40.535 43.0405 40.4918 42.8935L40.286 42.1716L40.037 42.1649L40.0137 42.0146L40.6911 41.8174L40.7143 41.9678L40.5217 42.0981L40.7143 42.7865C40.7807 43.0338 40.7774 43.231 40.6977 43.3847C40.618 43.5351 40.4653 43.6454 40.2362 43.7122C40.1133 43.749 39.9971 43.7657 39.8909 43.7623C39.7846 43.759 39.6817 43.7223 39.5854 43.6487C39.4891 43.5752 39.4161 43.4449 39.3663 43.2678L39.1438 42.5091Z" fill="#D7D7D7"/>
<path d="M41.9063 43.1269L41.8665 42.9899L42.0092 42.8094L41.9428 41.3257L42.2151 41.1318L43.2775 42.238L43.4867 42.2447L43.5365 42.3884L42.7895 42.7292L42.7496 42.5922L42.909 42.4051L42.7064 42.1945L42.2184 42.4151L42.245 42.7092L42.5072 42.6891L42.5537 42.8362L41.9063 43.1269ZM42.1985 42.1945L42.5604 42.0308L42.1453 41.583L42.1985 42.1945Z" fill="#D7D7D7"/>
<path d="M44.27 41.9808L44.2103 41.8505L44.3497 41.6667L43.7322 40.6608L43.4765 40.7009L43.4167 40.5639L44.1439 40.1094L44.2036 40.2464L44.0476 40.4569L44.6817 41.4896L45.0901 41.2523L45.0802 40.8513L45.2329 40.7844L45.4487 41.2456L44.27 41.9808Z" fill="#D7D7D7"/>
<path d="M45.2165 39.5643L45.1401 39.434L45.8075 38.916L45.8905 39.0497L45.7511 39.2469L46.4848 40.2026L46.7139 40.1057L46.7969 40.2427L46.1395 40.754L46.0598 40.6337L46.1893 40.4265L45.4589 39.4774L45.2165 39.5643Z" fill="#D7D7D7"/>
<path d="M46.2854 38.5254L47.4209 37.4326L47.7496 37.8403L47.5969 37.9473L47.3313 37.7668L47.0989 37.9907L47.9687 38.9064L48.1945 38.7727L48.2875 38.8997L47.6766 39.4879L47.5869 39.3742L47.6998 39.1604L46.8332 38.248L46.6075 38.4653L46.7834 38.7827L46.6407 38.8863L46.2854 38.5254Z" fill="#D7D7D7"/>
<path d="M47.939 37.0983L47.8394 36.978L48.3241 36.3731L48.427 36.4901L48.3805 36.6505L48.9583 36.7574L48.7325 36.2193L48.5632 36.3196L48.4569 36.206L48.8387 35.7314L48.9417 35.8484L48.8985 36.0121L49.2006 36.8276L49.5559 37.1183L49.7551 36.9947L49.858 37.0983L49.3534 37.7232L49.2571 37.6196L49.3202 37.4091L48.9848 37.135L48.105 36.998L47.939 37.0983Z" fill="#D7D7D7"/>
</svg>
