<svg width="70" height="70" viewBox="0 0 70 70" fill="none" xmlns="http://www.w3.org/2000/svg">
<g filter="url(#filter0_d_141_2026)">
<circle cx="31" cy="30" r="20" fill="#FF5300"/>
</g>
<g clip-path="url(#clip0_141_2026)">
<path d="M37.75 28.5C37.75 33.75 31 38.25 31 38.25C31 38.25 24.25 33.75 24.25 28.5C24.25 26.7098 24.9612 24.9929 26.227 23.727C27.4929 22.4612 29.2098 21.75 31 21.75C32.7902 21.75 34.5071 22.4612 35.773 23.727C37.0388 24.9929 37.75 26.7098 37.75 28.5Z" stroke="white" stroke-width="2" stroke-linecap="round" stroke-linejoin="round"/>
<path d="M31 30.75C32.2426 30.75 33.25 29.7426 33.25 28.5C33.25 27.2574 32.2426 26.25 31 26.25C29.7574 26.25 28.75 27.2574 28.75 28.5C28.75 29.7426 29.7574 30.75 31 30.75Z" stroke="white" stroke-width="2" stroke-linecap="round" stroke-linejoin="round"/>
</g>
<defs>
<filter id="filter0_d_141_2026" x="0" y="0" width="70" height="70" filterUnits="userSpaceOnUse" color-interpolation-filters="sRGB">
<feFlood flood-opacity="0" result="BackgroundImageFix"/>
<feColorMatrix in="SourceAlpha" type="matrix" values="0 0 0 0 0 0 0 0 0 0 0 0 0 0 0 0 0 0 127 0" result="hardAlpha"/>
<feOffset dx="4" dy="5"/>
<feGaussianBlur stdDeviation="7.5"/>
<feColorMatrix type="matrix" values="0 0 0 0 1 0 0 0 0 0.326087 0 0 0 0 0 0 0 0 0.4 0"/>
<feBlend mode="normal" in2="BackgroundImageFix" result="effect1_dropShadow_141_2026"/>
<feBlend mode="normal" in="SourceGraphic" in2="effect1_dropShadow_141_2026" result="shape"/>
</filter>
<clipPath id="clip0_141_2026">
<rect width="18" height="18" fill="white" transform="translate(22 21)"/>
</clipPath>
</defs>
</svg>
