<svg width="100" height="100" viewBox="0 0 100 100" fill="none" xmlns="http://www.w3.org/2000/svg">
<g filter="url(#filter0_d_147_154)">
<circle cx="46" cy="45" r="35" fill="#00ACFF"/>
</g>
<path d="M33.5 45C33.5 43.9188 33.6375 42.8713 33.895 41.87C34.5856 41.9063 35.2728 41.751 35.8806 41.4211C36.4883 41.0912 36.9931 40.5998 37.339 40.0009C37.6849 39.4021 37.8585 38.7193 37.8406 38.028C37.8227 37.3367 37.614 36.6639 37.2375 36.0838C38.7487 34.597 40.6135 33.5194 42.6562 32.9525C42.97 33.5694 43.4483 34.0873 44.0382 34.4492C44.6282 34.811 45.3067 35.0025 45.9987 35.0025C46.6908 35.0025 47.3693 34.811 47.9593 34.4492C48.5492 34.0873 49.0275 33.5694 49.3413 32.9525C51.384 33.5194 53.2488 34.597 54.76 36.0838C54.3831 36.664 54.1741 37.3371 54.156 38.0287C54.138 38.7203 54.3116 39.4035 54.6577 40.0025C55.0038 40.6016 55.5089 41.0932 56.1171 41.423C56.7253 41.7528 57.4129 41.908 58.1038 41.8713C58.3612 42.8713 58.4988 43.9188 58.4988 45C58.4988 46.0813 58.3612 47.1288 58.1038 48.13C57.4131 48.0935 56.7257 48.2487 56.1177 48.5784C55.5098 48.9082 55.0048 49.3996 54.6588 49.9985C54.3127 50.5973 54.139 51.2802 54.1569 51.9717C54.1747 52.6631 54.3835 53.3361 54.76 53.9163C53.2488 55.4031 51.384 56.4806 49.3413 57.0475C49.0275 56.4307 48.5492 55.9127 47.9593 55.5509C47.3693 55.1891 46.6908 54.9976 45.9987 54.9976C45.3067 54.9976 44.6282 55.1891 44.0382 55.5509C43.4483 55.9127 42.97 56.4307 42.6562 57.0475C40.6135 56.4806 38.7487 55.4031 37.2375 53.9163C37.6144 53.3361 37.8234 52.6629 37.8415 51.9713C37.8595 51.2797 37.6859 50.5966 37.3398 49.9975C36.9937 49.3984 36.4886 48.9068 35.8804 48.577C35.2722 48.2472 34.5846 48.0921 33.8938 48.1288C33.6375 47.13 33.5 46.0825 33.5 45ZM39.505 48.75C40.2925 50.1138 40.5175 51.6825 40.21 53.155C40.72 53.5175 41.2625 53.8313 41.8313 54.0925C42.9771 53.0661 44.4616 52.4989 46 52.5C47.575 52.5 49.0475 53.0888 50.1688 54.0925C50.7375 53.8313 51.28 53.5175 51.79 53.155C51.4743 51.65 51.7253 50.0814 52.495 48.75C53.2633 47.418 54.4963 46.4165 55.9575 45.9375C56.0153 45.3139 56.0153 44.6862 55.9575 44.0625C54.4958 43.5838 53.2623 42.5823 52.4937 41.25C51.7241 39.9187 51.473 38.3501 51.7887 36.845C51.2789 36.4824 50.7361 36.1685 50.1675 35.9075C49.022 36.9337 47.5379 37.5008 46 37.5C44.4616 37.5011 42.9771 36.934 41.8313 35.9075C41.2627 36.1685 40.7199 36.4824 40.21 36.845C40.5257 38.3501 40.2747 39.9187 39.505 41.25C38.7367 42.582 37.5037 43.5836 36.0425 44.0625C35.9847 44.6862 35.9847 45.3139 36.0425 45.9375C37.5042 46.4162 38.7377 47.4177 39.5062 48.75H39.505ZM46 48.75C45.0054 48.75 44.0516 48.3549 43.3483 47.6517C42.6451 46.9484 42.25 45.9946 42.25 45C42.25 44.0055 42.6451 43.0516 43.3483 42.3484C44.0516 41.6451 45.0054 41.25 46 41.25C46.9946 41.25 47.9484 41.6451 48.6517 42.3484C49.3549 43.0516 49.75 44.0055 49.75 45C49.75 45.9946 49.3549 46.9484 48.6517 47.6517C47.9484 48.3549 46.9946 48.75 46 48.75ZM46 46.25C46.3315 46.25 46.6495 46.1183 46.8839 45.8839C47.1183 45.6495 47.25 45.3315 47.25 45C47.25 44.6685 47.1183 44.3506 46.8839 44.1161C46.6495 43.8817 46.3315 43.75 46 43.75C45.6685 43.75 45.3505 43.8817 45.1161 44.1161C44.8817 44.3506 44.75 44.6685 44.75 45C44.75 45.3315 44.8817 45.6495 45.1161 45.8839C45.3505 46.1183 45.6685 46.25 46 46.25Z" fill="white"/>
<defs>
<filter id="filter0_d_147_154" x="0" y="0" width="100" height="100" filterUnits="userSpaceOnUse" color-interpolation-filters="sRGB">
<feFlood flood-opacity="0" result="BackgroundImageFix"/>
<feColorMatrix in="SourceAlpha" type="matrix" values="0 0 0 0 0 0 0 0 0 0 0 0 0 0 0 0 0 0 127 0" result="hardAlpha"/>
<feOffset dx="4" dy="5"/>
<feGaussianBlur stdDeviation="7.5"/>
<feColorMatrix type="matrix" values="0 0 0 0 0 0 0 0 0 0.76 0 0 0 0 1 0 0 0 0.4 0"/>
<feBlend mode="normal" in2="BackgroundImageFix" result="effect1_dropShadow_147_154"/>
<feBlend mode="normal" in="SourceGraphic" in2="effect1_dropShadow_147_154" result="shape"/>
</filter>
</defs>
</svg>
