<svg width="20" height="20" viewBox="0 0 20 20" fill="none" xmlns="http://www.w3.org/2000/svg">
<path d="M11.3099 18.3999C9.98761 18.6065 8.63523 18.4979 7.36284 18.0829C6.09044 17.668 4.93401 16.9585 3.98766 16.0122C3.04132 15.0658 2.33181 13.9094 1.91689 12.637C1.50197 11.3646 1.39336 10.0122 1.59991 8.68991C1.07865 7.69842 0.888169 6.5662 1.05632 5.45873C1.22448 4.35125 1.74244 3.3266 2.53452 2.53452C3.3266 1.74244 4.35125 1.22448 5.45873 1.05632C6.5662 0.888169 7.69842 1.07865 8.68991 1.59991C10.0122 1.39336 11.3646 1.50197 12.637 1.91689C13.9094 2.33181 15.0658 3.04132 16.0122 3.98766C16.9585 4.93401 17.668 6.09044 18.0829 7.36284C18.4979 8.63523 18.6065 9.98761 18.3999 11.3099C18.9212 12.3014 19.1117 13.4336 18.9435 14.5411C18.7754 15.6486 18.2574 16.6732 17.4653 17.4653C16.6732 18.2574 15.6486 18.7754 14.5411 18.9435C13.4336 19.1117 12.3014 18.9212 11.3099 18.3999ZM10.0519 15.1559H10.0119C12.8839 15.1559 14.3149 13.7699 14.3149 11.9129C14.3149 10.7149 13.7639 9.44191 11.5889 8.95491L9.60591 8.51491C8.85091 8.34291 7.98391 8.11491 7.98391 7.39991C7.98391 6.68491 8.60391 6.18691 9.70791 6.18691C11.9379 6.18691 11.7349 7.71491 12.8389 7.71491C13.4149 7.71491 13.9319 7.37291 13.9319 6.78491C13.9319 5.41491 11.7349 4.38491 9.87591 4.38491C7.85491 4.38491 5.70291 5.24391 5.70291 7.52891C5.70291 8.62691 6.09691 9.79891 8.26291 10.3419L10.9519 11.0129C11.7679 11.2149 11.9699 11.6719 11.9699 12.0849C11.9699 12.7719 11.2859 13.4429 10.0519 13.4429C7.63491 13.4429 7.97391 11.5859 6.67791 11.5859C6.09791 11.5859 5.67491 11.9839 5.67491 12.5569C5.67491 13.6709 7.02691 15.1549 10.0519 15.1549V15.1559Z" fill="#FF5300"/>
</svg>
